<svg width="60" height="60" viewBox="0 0 60 60" fill="none" xmlns="http://www.w3.org/2000/svg">
<circle cx="30" cy="30" r="30" fill="white"/>
<g clip-path="url(#clip0_307_1188)">
<path d="M24.5673 19.8309H23.8462V18.3666H24.5673C24.9499 18.3666 25.3167 18.2123 25.5872 17.9377C25.8577 17.6631 26.0097 17.2907 26.0097 16.9023V16.1702H27.452V16.9023C27.452 17.679 27.148 18.4239 26.6071 18.9731C26.0661 19.5223 25.3324 19.8309 24.5673 19.8309Z" fill="#6B9D52"/>
<path d="M35.3846 19.8309H34.6634C33.8984 19.8309 33.1647 19.5223 32.6237 18.9731C32.0827 18.4239 31.7788 17.679 31.7788 16.9023V16.1702H33.2211V16.9023C33.2211 17.2907 33.3731 17.6631 33.6436 17.9377C33.914 18.2123 34.2809 18.3666 34.6634 18.3666H35.3846V19.8309Z" fill="#6B9D52"/>
<path d="M29.6155 29.3487C28.7597 29.3487 27.9231 29.0911 27.2116 28.6084C26.5 28.1257 25.9454 27.4396 25.6179 26.6369C25.2904 25.8342 25.2048 24.951 25.3717 24.0988C25.5387 23.2467 25.9508 22.464 26.5559 21.8496C27.161 21.2353 27.932 20.8169 28.7714 20.6474C29.6107 20.4779 30.4807 20.5649 31.2713 20.8974C32.062 21.2299 32.7378 21.7929 33.2132 22.5153C33.6887 23.2377 33.9424 24.087 33.9424 24.9558C33.9413 26.1205 33.485 27.2372 32.6738 28.0608C31.8626 28.8844 30.7627 29.3475 29.6155 29.3487ZM29.6155 22.0273C29.045 22.0273 28.4873 22.199 28.0129 22.5208C27.5385 22.8426 27.1688 23.3 26.9505 23.8351C26.7321 24.3703 26.675 24.9591 26.7863 25.5272C26.8976 26.0953 27.1723 26.6171 27.5758 27.0267C27.9792 27.4362 28.4932 27.7151 29.0527 27.8281C29.6123 27.9411 30.1923 27.8832 30.7194 27.6615C31.2465 27.4398 31.697 27.0645 32.014 26.5829C32.3309 26.1013 32.5001 25.5351 32.5001 24.9558C32.5001 24.1791 32.1962 23.4342 31.6552 22.885C31.1143 22.3358 30.3805 22.0273 29.6155 22.0273Z" fill="#6B9D52"/>
<path d="M35.3846 35.938H23.8462C23.6549 35.938 23.4715 35.8608 23.3362 35.7235C23.201 35.5862 23.125 35.4 23.125 35.2058V16.1701C23.125 15.976 23.201 15.7897 23.3362 15.6524C23.4715 15.5151 23.6549 15.438 23.8462 15.438H35.3846C35.5759 15.438 35.7593 15.5151 35.8945 15.6524C36.0298 15.7897 36.1058 15.976 36.1058 16.1701V35.2058C36.1058 35.4 36.0298 35.5862 35.8945 35.7235C35.7593 35.8608 35.5759 35.938 35.3846 35.938ZM24.5673 34.4737H34.6635V16.9023H24.5673V34.4737Z" fill="#6B9D52"/>
<path d="M33.2211 35.2059H31.7788V34.4737C31.7788 33.697 32.0827 32.9521 32.6237 32.4029C33.1647 31.8537 33.8984 31.5452 34.6634 31.5452H35.3846V33.0094H34.6634C34.2809 33.0094 33.914 33.1637 33.6436 33.4383C33.3731 33.7129 33.2211 34.0854 33.2211 34.4737V35.2059Z" fill="#6B9D52"/>
<path d="M27.452 35.2059H26.0097V34.4737C26.0097 34.0854 25.8577 33.7129 25.5872 33.4383C25.3167 33.1637 24.9499 33.0094 24.5673 33.0094H23.8462V31.5452H24.5673C25.3324 31.5452 26.0661 31.8537 26.6071 32.4029C27.148 32.9521 27.452 33.697 27.452 34.4737V35.2059Z" fill="#6B9D52"/>
<path d="M37.548 34.4736H21.6826V35.9379H37.548V34.4736Z" fill="#6B9D52"/>
<path d="M46.2018 45.4558H13.0288C12.8375 45.4558 12.6541 45.3787 12.5188 45.2414C12.3836 45.1041 12.3076 44.9178 12.3076 44.7237V25.688C12.3076 25.4938 12.3836 25.3076 12.5188 25.1702C12.6541 25.0329 12.8375 24.9558 13.0288 24.9558H23.8461V26.4201H13.7499V43.9915H45.4807V26.4201H35.3845V24.9558H46.2018C46.3931 24.9558 46.5765 25.0329 46.7118 25.1702C46.847 25.3076 46.923 25.4938 46.923 25.688V44.7237C46.923 44.9178 46.847 45.1041 46.7118 45.2414C46.5765 45.3787 46.3931 45.4558 46.2018 45.4558Z" fill="#6B9D52"/>
<path d="M46.2018 45.4557H13.0288C12.8375 45.4557 12.6541 45.3786 12.5188 45.2413C12.3836 45.104 12.3076 44.9177 12.3076 44.7236V38.8664C12.3076 38.6722 12.3836 38.486 12.5188 38.3487C12.6541 38.2114 12.8375 38.1343 13.0288 38.1343H46.2018C46.3931 38.1343 46.5765 38.2114 46.7118 38.3487C46.847 38.486 46.923 38.6722 46.923 38.8664V44.7236C46.923 44.9177 46.847 45.104 46.7118 45.2413C46.5765 45.3786 46.3931 45.4557 46.2018 45.4557ZM13.7499 43.9914H45.4807V39.5986H13.7499V43.9914Z" fill="#6B9D52"/>
<path d="M18.077 41.063H15.1924V42.5273H18.077V41.063Z" fill="#6B9D52"/>
<path d="M20.9614 41.063H19.519V42.5273H20.9614V41.063Z" fill="#6B9D52"/>
<path d="M29.6155 45.4557C28.9024 45.4557 28.2052 45.241 27.6123 44.8388C27.0193 44.4365 26.5572 43.8648 26.2842 43.1959C26.0113 42.527 25.9399 41.7909 26.0791 41.0808C26.2182 40.3707 26.5616 39.7184 27.0659 39.2065C27.5701 38.6945 28.2126 38.3459 28.9121 38.2046C29.6115 38.0634 30.3365 38.1359 30.9954 38.4129C31.6543 38.69 32.2174 39.1592 32.6136 39.7612C33.0098 40.3632 33.2213 41.071 33.2213 41.795C33.2202 42.7655 32.8399 43.696 32.1639 44.3822C31.488 45.0685 30.5715 45.4545 29.6155 45.4557ZM29.6155 39.5986C29.1876 39.5986 28.7694 39.7274 28.4136 39.9687C28.0578 40.2101 27.7805 40.5531 27.6168 40.9545C27.453 41.3558 27.4102 41.7974 27.4936 42.2235C27.5771 42.6496 27.7832 43.0409 28.0857 43.3481C28.3883 43.6553 28.7738 43.8645 29.1935 43.9492C29.6131 44.034 30.0481 43.9905 30.4435 43.8242C30.8388 43.658 31.1767 43.3765 31.4144 43.0153C31.6521 42.6541 31.779 42.2294 31.779 41.795C31.779 41.2125 31.5511 40.6538 31.1453 40.2419C30.7396 39.83 30.1893 39.5986 29.6155 39.5986Z" fill="#6B9D52"/>
<path d="M39.7114 41.063H38.269V42.5273H39.7114V41.063Z" fill="#6B9D52"/>
<path d="M44.0384 41.063H41.1538V42.5273H44.0384V41.063Z" fill="#6B9D52"/>
<path d="M16.6347 30.0807H15.1924V28.6164C15.1924 28.4222 15.2684 28.236 15.4036 28.0987C15.5388 27.9614 15.7223 27.8843 15.9135 27.8843H17.3558V29.3486H16.6347V30.0807Z" fill="#6B9D52"/>
<path d="M44.0385 30.0807H42.5962V29.3486H41.875V27.8843H43.3173C43.5086 27.8843 43.692 27.9614 43.8272 28.0987C43.9625 28.236 44.0385 28.4222 44.0385 28.6164V30.0807Z" fill="#6B9D52"/>
</g>
<defs>
<clipPath id="clip0_307_1188">
<rect width="34.6154" height="30" fill="white" transform="translate(12.3076 15.3845)"/>
</clipPath>
</defs>
</svg>
