<svg width="60" height="60" viewBox="0 0 60 60" fill="none" xmlns="http://www.w3.org/2000/svg">
<circle cx="30" cy="30" r="30" fill="white"/>
<g clip-path="url(#clip0_307_1168)">
<path d="M45.3249 21.7271H43.9134L35.5705 13.4809C35.4371 13.3491 35.2615 13.2798 35.0719 13.2798C34.8823 13.2798 34.7067 13.3561 34.5733 13.4809L26.2304 21.7271H14.4254C14.0392 21.7271 13.7231 22.0392 13.7231 22.4206V38.4205C13.7231 38.802 14.0392 39.114 14.4254 39.114H15.837L24.1868 47.3602C24.3273 47.4989 24.5029 47.5613 24.6854 47.5613C24.868 47.5613 25.0436 47.492 25.184 47.3602L33.5339 39.114H45.3249C45.7111 39.114 46.0272 38.802 46.0272 38.4205V22.4206C46.0272 22.0322 45.7111 21.7271 45.3249 21.7271ZM35.0719 14.9512L41.926 21.7201H28.2178L35.0719 14.9512ZM24.6784 45.883L17.8244 39.114H31.5395L24.6784 45.883ZM44.6226 37.72H33.232H16.1249H15.1277V23.1141H26.5183H43.6254H44.6226V37.72Z" fill="#6B9D52"/>
<path d="M41.891 26.991C41.8418 26.991 41.7997 26.998 41.7646 26.998C40.7463 26.998 39.9177 26.1796 39.9177 25.174C39.9177 25.1323 39.9177 25.0838 39.9247 25.0283C39.9387 24.8341 39.8755 24.6469 39.7421 24.5012C39.6087 24.3556 39.419 24.2793 39.2294 24.2793H20.5984C20.4018 24.2793 20.2122 24.3625 20.0858 24.5012C19.9524 24.6469 19.8892 24.8341 19.9032 25.0283C19.9102 25.0838 19.9102 25.1323 19.9102 25.174C19.9102 26.1796 19.0816 26.998 18.0633 26.998C18.0071 26.998 17.9509 26.998 17.8877 26.991C17.6911 26.9702 17.4945 27.0396 17.347 27.1713C17.1995 27.3031 17.1152 27.4904 17.1152 27.6846V32.8376C17.1152 33.0317 17.1995 33.219 17.347 33.3508C17.4945 33.4825 17.6911 33.545 17.8877 33.5311C17.9509 33.5242 18.0071 33.5242 18.0633 33.5242C19.0816 33.5242 19.9102 34.3425 19.9102 35.3482C19.9102 35.473 19.8962 35.6048 19.8681 35.7296C19.826 35.9377 19.8751 36.1457 20.0085 36.3122C20.142 36.4717 20.3456 36.5688 20.5563 36.5688H39.2786C39.4893 36.5688 39.6929 36.4717 39.8264 36.3122C39.9598 36.1527 40.0089 35.9377 39.9668 35.7296C39.9387 35.6048 39.9247 35.473 39.9247 35.3482C39.9247 34.3425 40.7533 33.5242 41.7716 33.5242C41.8067 33.5242 41.8489 33.5242 41.898 33.5311C42.0947 33.545 42.2843 33.4756 42.4247 33.3438C42.5652 33.2121 42.6494 33.0317 42.6494 32.8376V27.6915C42.6494 27.4973 42.5722 27.317 42.4247 27.1852C42.2773 27.0465 42.0876 26.9772 41.891 26.991ZM41.2379 32.1718C39.7491 32.4145 38.5974 33.6559 38.5202 35.1748H21.3007C21.2235 33.6351 20.0366 32.3729 18.5127 32.1579V28.3504C19.9243 28.1492 21.0549 27.0534 21.2656 25.6594H38.5482C38.7589 27.0257 39.8545 28.1146 41.2309 28.3434V32.1718H41.2379Z" fill="#6B9D52"/>
<path d="M29.8753 26.6511C27.7685 26.6511 26.062 28.3434 26.062 30.417C26.062 32.4907 27.7755 34.1829 29.8753 34.1829C31.9751 34.1829 33.6886 32.4907 33.6886 30.417C33.6886 28.3434 31.9821 26.6511 29.8753 26.6511ZM29.8753 32.7959C28.548 32.7959 27.4665 31.7278 27.4665 30.417C27.4665 29.1062 28.548 28.0382 29.8753 28.0382C31.2026 28.0382 32.284 29.1062 32.284 30.417C32.284 31.7278 31.2026 32.7959 29.8753 32.7959Z" fill="#6B9D52"/>
<path d="M22.5714 28.4543C21.4759 28.4543 20.584 29.3351 20.584 30.4171C20.584 31.499 21.4759 32.3798 22.5714 32.3798C23.6669 32.3798 24.5588 31.499 24.5588 30.4171C24.5588 29.3351 23.6669 28.4543 22.5714 28.4543ZM22.5714 30.9927C22.2483 30.9927 21.9885 30.7361 21.9885 30.4171C21.9885 30.098 22.2483 29.8414 22.5714 29.8414C22.8944 29.8414 23.1543 30.098 23.1543 30.4171C23.1543 30.7361 22.8944 30.9927 22.5714 30.9927Z" fill="#6B9D52"/>
<path d="M37.3473 28.4543C36.2517 28.4543 35.3599 29.3351 35.3599 30.4171C35.3599 31.499 36.2517 32.3798 37.3473 32.3798C38.4428 32.3798 39.3347 31.499 39.3347 30.4171C39.3347 29.3351 38.4428 28.4543 37.3473 28.4543ZM37.3473 30.9927C37.0242 30.9927 36.7644 30.7361 36.7644 30.4171C36.7644 30.098 37.0242 29.8414 37.3473 29.8414C37.6703 29.8414 37.9301 30.098 37.9301 30.4171C37.9301 30.7361 37.6633 30.9927 37.3473 30.9927Z" fill="#6B9D52"/>
</g>
<defs>
<clipPath id="clip0_307_1168">
<rect width="35.3846" height="34.6154" fill="white" transform="translate(12.3076 13.0771)"/>
</clipPath>
</defs>
</svg>
