<svg width="539" height="469" viewBox="0 0 539 469" fill="none" xmlns="http://www.w3.org/2000/svg">
<path fill-rule="evenodd" clip-rule="evenodd" d="M456.245 199.228C467.082 217.547 486.626 219.961 509.036 221.917C509.307 221.941 457.742 237.149 442.656 223.294C412.363 258.046 392.286 215.082 404.917 256.404C412.803 282.2 364.839 320.856 330.087 314.514C314.938 311.749 344.908 366.795 276.177 402.286C187.093 448.288 183.986 402.855 169.722 411.699C146.378 426.178 51.1403 400.032 78.5737 288.291C78.979 286.646 48.6279 246.866 67.5177 209.775C76.9286 191.29 92.2521 163.742 138.06 177.152C151.259 181.014 151.607 173.987 151.051 165.925C147.03 107.552 214.27 70.724 265.521 92.4741C277.611 97.6052 260.204 67.9085 305.741 50.8589C392.546 18.3545 404.369 105.07 395.664 119.256C436.288 112.01 468.676 158.244 456.245 199.228V199.228Z" fill="#FEFEFE"/>
<path d="M172.324 280.236C169.471 276.952 164.991 275.148 160.074 278.028C157.929 279.294 154.479 282.49 151.795 283.364C150.745 283.68 149.271 282.974 148.746 282.37C147.008 280.369 148.593 278 149.65 277.082L156.369 271.246C158.143 269.705 157.521 267.463 156.406 266.18C154.833 264.368 152.485 264.486 151.051 265.732L136.932 277.995C135.309 279.404 135.516 282.006 136.5 283.139L155.155 304.618C158.205 308.129 160.753 304.657 163.018 302.69L168.529 297.903C169.888 296.723 179.57 288.579 172.324 280.236ZM165.122 286.889C167.253 289.343 165.558 292.272 163.859 293.747C161.745 295.583 159.559 295.429 157.788 293.391C155.821 291.126 156.196 288.813 158.122 287.141C159.896 285.6 163.253 284.737 165.122 286.889ZM209.62 257.313L191.029 235.909C188.997 233.569 186.263 235.149 185.13 236.132C184.149 236.985 182.469 239.702 184.076 241.552L203.059 263.409C205.059 265.711 207.554 264.008 208.573 263.123C210.083 261.812 211.456 259.427 209.62 257.313ZM195.955 260.109C191.692 255.201 186.249 255.492 180.979 259.871C179.135 261.407 176.059 263.813 172.735 262.197C170.988 261.33 169.021 259.065 167.929 257.96C165.286 255.222 163.424 254.985 161.348 256.788C159.385 258.493 158.949 260.66 160.949 262.963L178.031 282.63C181.081 286.141 183.998 284.467 190.076 279.189C192.794 276.828 203.43 268.716 195.955 260.109ZM188.654 266.648C190.753 269.064 189.088 271.57 187.842 272.652C185.69 274.521 183.451 274.611 181.746 272.648C180.271 270.95 180.097 268.386 182.399 266.386C184.627 264.451 187.474 265.289 188.654 266.648ZM231.961 236.32C230.912 235.112 229.014 234.376 227.504 235.687C225.805 237.162 226.003 238.381 224.229 239.922C219.548 243.988 213.73 242.551 210.124 238.398C206.845 234.624 204.896 228.568 209.917 224.207C211.993 222.404 212.926 223.249 215.229 221.249C216.625 220.036 216.137 218.407 214.924 217.01C211.514 213.084 206.55 216.137 203.757 218.563C195.15 226.039 196.167 237.275 202.594 244.674C209.085 252.148 219.404 255.107 228.803 246.943C230.842 245.172 235.6 240.51 231.961 236.32ZM238.774 231.793C240.872 234.209 243.45 232.831 244.583 231.847C245.715 230.863 247.629 228.34 245.531 225.924L233.465 212.032C230.383 208.484 231.542 206.616 232.828 204.97C234.108 203.394 235.482 202.002 233.253 199.435C231.548 197.472 229.52 197.578 227.67 199.184L214.798 210.365C213.892 211.151 212.134 213.473 214.265 215.927C216.494 218.494 218.065 217.328 219.804 216.281C221.614 215.239 223.626 214.353 226.708 217.901L238.774 231.793ZM260.848 185.997C255.307 179.617 248.694 180.924 239.936 188.531C237.294 190.826 232.301 195.295 235.121 198.541L253.449 219.643C255.055 221.493 257.15 220.931 259.038 219.292C261.416 217.226 261.457 215.138 258.834 212.118C257.293 210.344 255.658 208.386 256.703 205.624C257.002 204.901 257.734 204.066 258.263 203.607C264.716 198.532 265.045 190.829 260.848 185.997ZM253.299 192.554C255.135 194.668 254.956 197.207 252.691 199.175C250.804 200.814 248.291 199.751 246.881 198.128C245.701 196.769 244.766 193.939 246.691 192.267C248.956 190.299 251.627 190.629 253.299 192.554ZM294.92 164.484C287.74 156.217 276.529 155.357 267.96 162.8C259.844 169.849 258.312 181.047 265.853 189.73C273.001 197.959 284.211 198.819 292.78 191.376C300.896 184.327 302.428 173.128 294.92 164.484ZM287.521 170.91C290.767 174.647 292.615 181.121 287.632 185.449C282.348 190.039 276.137 186.625 273.252 183.303C269.219 178.66 268.804 172.464 273.108 168.726C278.355 164.169 284.603 167.55 287.521 170.91ZM339.996 143.413L322.061 122.764C319.799 120.159 316.665 121.888 315.381 123.003C313.909 124.282 312.724 125.51 312.693 127.457C312.706 130.293 313.277 133.771 313.571 135.635C313.723 136.496 315.857 145.968 314.007 147.575C312.723 148.689 310.482 146.795 309.695 145.889L303.302 138.528C301.63 136.603 299.375 136.905 297.526 138.511C296.657 139.265 294.832 142.043 296.799 144.308L315.127 165.41C317.192 167.788 319.836 166.486 321.384 165.141C322.592 164.092 324.102 162.781 324.14 161.224C324.202 155.806 323.077 151.154 322.323 146.246C322.148 145.206 321.305 141.567 322.778 140.288C324.25 139.009 325.698 140.6 326.517 141.543L333.271 149.32C334.943 151.245 337.125 151.469 339.352 149.535C340.976 148.125 342.258 146.018 339.996 143.413ZM189.573 340.753C186.721 337.468 182.24 335.665 177.323 338.544C175.179 339.811 171.729 343.006 169.044 343.88C167.994 344.196 166.52 343.49 165.995 342.886C164.258 340.886 165.842 338.516 166.899 337.598L173.618 331.762C175.392 330.221 174.77 327.98 173.656 326.696C172.082 324.884 169.734 325.003 168.3 326.249L154.182 338.511C152.558 339.921 152.765 342.523 153.749 343.655L172.405 365.134C175.454 368.645 178.002 365.174 180.267 363.207L185.778 358.42C187.137 357.239 196.819 349.095 189.573 340.753ZM182.371 347.405C184.502 349.859 182.807 352.788 181.109 354.263C178.995 356.099 176.808 355.946 175.038 353.907C173.07 351.642 173.446 349.329 175.371 347.657C177.145 346.116 180.502 345.254 182.371 347.405ZM211.822 330.7C210.51 329.19 208.79 328.963 206.978 330.536C204.977 332.274 201.225 335.732 198.405 332.485C194.471 327.955 205.286 324.853 201.581 320.587C197.418 315.793 193.737 326.805 189.638 322.086C189.343 321.747 189.04 321.016 189.032 320.626C188.704 317.732 192.319 315.718 193.7 313.724C194.811 312.03 194.773 311.07 193.1 309.145C191.92 307.786 190.262 307.173 188.073 309.075L179.692 316.354C179.277 316.714 175.346 320.195 178.526 323.856L196.199 344.203C198.953 347.374 203.852 342.722 206.155 340.722C208.609 338.59 211.397 336.235 212.471 334.573C213.62 332.847 212.609 331.606 211.822 330.7ZM233.211 310.732C232.162 309.524 230.264 308.788 228.754 310.099C227.055 311.575 227.253 312.794 225.479 314.335C220.798 318.4 214.98 316.963 211.374 312.811C208.095 309.036 206.146 302.98 211.167 298.619C213.243 296.816 214.176 297.661 216.479 295.661C217.875 294.448 217.388 292.819 216.174 291.422C212.765 287.496 207.8 290.55 205.007 292.976C196.4 300.451 197.417 311.687 203.844 319.086C210.335 326.561 220.654 329.519 230.053 321.355C232.092 319.585 236.85 314.922 233.211 310.732ZM260.096 288.904L241.506 267.5C240.195 265.99 237.759 265.854 236.249 267.165L217.789 283.198C216.921 283.952 215.934 286.399 217.049 287.683L236.688 310.295C238.295 312.144 241.081 310.32 241.949 309.566C243.044 308.615 245.137 306.069 243.072 303.691L229.76 288.364C227.104 285.307 230.96 281.892 232.017 280.974C235.112 278.285 237.582 276.935 241.057 280.936L253.713 295.508C255.32 297.357 258.106 295.533 258.974 294.779C260.069 293.828 262.162 291.282 260.096 288.904ZM287.012 265.526L268.848 244.613C266.749 242.197 265.122 242.154 262.442 244.482L249.381 255.826C246.851 258.023 246.844 260.149 248.975 262.602L259.106 274.267C265.27 281.364 257.481 283.758 261.252 288.099C263.186 290.326 265.418 289.845 267.456 288.074C271.118 284.894 273.653 277.062 268.276 270.872L260.703 262.152C258.932 260.113 259.091 257.856 261.016 256.184C262.904 254.544 265.284 254.464 267.153 256.615L280.071 271.489C281.907 273.603 284.526 272.653 286.036 271.341C287.659 269.931 288.881 267.678 287.012 265.526ZM314.698 242.937C313.19 241.2 300.195 234.473 299.345 233.953C295.665 231.851 286.897 227.016 286.897 227.016C284.137 225.44 281.441 227.979 279.894 229.324C278.648 230.406 276.808 231.871 276.648 233.136C276.228 236.084 277.258 237.574 280.082 244.79L283.037 252.157C285.022 257.188 288.172 265.313 288.5 265.691C290.27 267.729 292.276 265.921 293.446 264.905C299.788 259.396 290.495 258.991 299.215 251.417C307.482 244.237 307.3 252.872 313.378 247.593C314.359 246.741 316.468 244.975 314.698 242.937ZM294.963 241.336C296.536 243.148 295.664 244.965 294.494 245.981C293.21 247.096 291.35 247.851 289.743 246.001C289.448 245.662 286.238 239.907 287.861 238.497C289.484 237.087 294.667 240.996 294.963 241.336ZM319.283 237.365C321.381 239.781 323.959 238.403 325.091 237.419C326.224 236.436 328.138 233.912 326.04 231.496L313.974 217.605C310.892 214.056 312.051 212.188 313.337 210.542C314.617 208.966 315.991 207.574 313.761 205.007C312.057 203.044 310.029 203.15 308.179 204.756L295.307 215.937C294.401 216.724 292.642 219.046 294.774 221.499C297.003 224.066 298.574 222.901 300.313 221.854C302.123 220.811 304.135 219.925 307.217 223.473L319.283 237.365ZM358.074 204.335L338.697 182.025C337.189 180.289 334.525 181.873 333.469 182.791C332.185 183.906 330.281 186.289 332.379 188.705L335.986 192.857C338.51 195.764 335.234 199.007 333.573 200.449C331.874 201.925 328.079 204.493 325.751 201.813L322.079 197.585C320.046 195.245 317.425 196.726 316.104 197.873C315.16 198.693 313.072 201.169 314.646 202.981L334.285 225.593C335.99 227.556 338.301 225.946 339.547 224.864C340.641 223.913 342.734 221.367 340.669 218.989L336.046 213.666C333.521 210.759 336.986 207.353 338.458 206.074C339.742 204.959 343.461 201.464 346.346 204.786L350.904 210.033C352.969 212.411 355.59 210.93 356.911 209.782C357.931 208.897 358.653 208.203 358.852 206.374C358.887 205.881 358.402 204.712 358.074 204.335ZM379.889 166.182C372.709 157.915 361.499 157.055 352.93 164.498C344.813 171.547 343.281 182.745 350.822 191.428C357.97 199.657 369.18 200.517 377.749 193.074C385.865 186.025 387.398 174.826 379.889 166.182ZM372.49 172.608C375.736 176.345 377.585 182.819 372.602 187.147C367.317 191.738 361.106 188.323 358.221 185.002C354.188 180.358 353.774 174.162 358.077 170.424C363.324 165.867 369.572 169.248 372.49 172.608ZM390.195 160.542L379.572 148.312C377.932 146.424 375.27 146.485 373.533 147.993C372.325 149.042 371.351 151.809 372.958 153.659L383.843 166.192C384.892 167.4 387.674 168.162 389.524 166.556C391.406 164.987 391.67 162.241 390.195 160.542ZM398.064 169.602C396.654 167.979 394.159 167.165 391.819 169.198C390.384 170.444 389.777 173.024 391.646 175.176C393.023 176.761 395.603 177.368 397.642 175.598C399.416 174.057 399.637 171.414 398.064 169.602Z" fill="#6B9D52"/>
</svg>
