<svg width="101" height="101" viewBox="0 0 101 101" fill="none" xmlns="http://www.w3.org/2000/svg">
<circle cx="50.5" cy="50.5" r="50.5" fill="#FECF3D"/>
<path d="M33.0317 35.6372V38.0054H23.1196V35.6372H33.0317ZM29.3208 41.7773H26.8306V31.8652H29.3208V41.7773ZM36.1812 42.8394L42.3701 34.5874C42.7282 34.1154 43.0049 33.6271 43.2002 33.1226C43.4036 32.6099 43.5054 32.1338 43.5054 31.6943V31.6699C43.5054 30.9619 43.2979 30.4126 42.8828 30.022C42.4678 29.6313 41.8778 29.436 41.1128 29.436C40.3885 29.436 39.8026 29.6517 39.355 30.083C38.9074 30.5062 38.6348 31.1084 38.5371 31.8896V31.9019H35.9614V31.8896C36.1079 30.8724 36.4049 30.0057 36.8525 29.2896C37.3083 28.5653 37.8942 28.016 38.6104 27.6416C39.3265 27.2591 40.1525 27.0679 41.0884 27.0679C42.1463 27.0679 43.0496 27.251 43.7983 27.6172C44.547 27.9753 45.1167 28.5002 45.5073 29.1919C45.8979 29.8836 46.0933 30.7178 46.0933 31.6943V31.7065C46.0933 32.3332 45.9631 32.9883 45.7026 33.6719C45.4422 34.3555 45.0801 35.0146 44.6162 35.6494L39.4771 42.6318H46.1909V45H36.1812V42.8394ZM54.4307 45.1831C52.7705 45.1831 51.5091 44.7396 50.6465 43.8525C49.792 42.9655 49.3647 41.7285 49.3647 40.1416V32.0728C49.3647 30.4777 49.7961 29.2407 50.6587 28.3618C51.5213 27.4748 52.7786 27.0312 54.4307 27.0312C56.0908 27.0312 57.3481 27.4707 58.2026 28.3496C59.0653 29.2285 59.4966 30.4696 59.4966 32.0728V40.1416C59.4966 41.7367 59.0653 42.9777 58.2026 43.8647C57.34 44.7437 56.0827 45.1831 54.4307 45.1831ZM54.4307 42.8149C55.3096 42.8149 55.9565 42.5871 56.3716 42.1313C56.7948 41.6675 57.0063 41.0042 57.0063 40.1416V32.0728C57.0063 31.2101 56.7988 30.5509 56.3838 30.0952C55.9688 29.6313 55.3177 29.3994 54.4307 29.3994C53.5436 29.3994 52.8926 29.6313 52.4775 30.0952C52.0625 30.5509 51.855 31.2101 51.855 32.0728V40.1416C51.855 41.0042 52.0625 41.6675 52.4775 42.1313C52.9007 42.5871 53.5518 42.8149 54.4307 42.8149ZM72.7778 45.1831C71.6792 45.1831 70.7393 44.9674 69.958 44.5361C69.1768 44.1048 68.5786 43.4782 68.1636 42.6562C67.7567 41.8262 67.5532 40.8293 67.5532 39.6655V38.0908L69.311 35.5151C69.5063 34.5711 69.9336 33.855 70.5928 33.3667C71.2601 32.8784 72.1512 32.6343 73.2661 32.6343C74.259 32.6343 75.1094 32.8499 75.8174 33.2812C76.5335 33.7044 77.0747 34.327 77.4409 35.1489C77.8153 35.9627 78.0024 36.9434 78.0024 38.0908V39.7021C78.0024 40.8577 77.7949 41.8465 77.3799 42.6685C76.973 43.4823 76.3789 44.1048 75.5977 44.5361C74.8164 44.9674 73.8765 45.1831 72.7778 45.1831ZM72.7656 42.8149C73.6364 42.8149 74.3118 42.5464 74.792 42.0093C75.2721 41.464 75.5122 40.695 75.5122 39.7021V38.0908C75.5122 37.1061 75.2721 36.3452 74.792 35.8081C74.3118 35.271 73.6364 35.0024 72.7656 35.0024C71.903 35.0024 71.2316 35.271 70.7515 35.8081C70.2795 36.3452 70.0435 37.1061 70.0435 38.0908V39.7021C70.0435 40.695 70.2795 41.464 70.7515 42.0093C71.2316 42.5464 71.903 42.8149 72.7656 42.8149ZM67.5532 33.5498C67.5532 32.4023 67.7526 31.4502 68.1514 30.6934C68.5583 29.9284 69.1646 29.3587 69.9702 28.9844C70.7759 28.6019 71.785 28.4025 72.9976 28.3862C73.4614 28.3781 73.848 28.3333 74.1572 28.252C74.4665 28.1624 74.6984 28.0363 74.853 27.8735C75.0076 27.7026 75.085 27.4951 75.085 27.251H77.3921C77.3921 27.9753 77.2375 28.5815 76.9282 29.0698C76.619 29.55 76.1551 29.9121 75.5366 30.1562C74.9181 30.3923 74.141 30.5103 73.2051 30.5103C72.4727 30.5103 71.8623 30.616 71.374 30.8276C70.8939 31.0311 70.5317 31.3403 70.2876 31.7554C70.0435 32.1623 69.9214 32.679 69.9214 33.3057V38.2373H67.5532V33.5498Z" fill="#2B2A29"/>
<g clip-path="url(#clip0_112_32)">
<path fill-rule="evenodd" clip-rule="evenodd" d="M59.5835 75.0493C59.4783 76.7075 57.4608 78.2332 53.9826 79.1854C50.4166 80.1639 45.4208 80.5251 40.4095 80.1572C35.3979 79.7791 30.5099 78.6765 27.1294 77.1786C23.735 75.681 21.9663 73.8127 22.219 72.1224L22.7057 65.6305L60.0748 68.4221L59.5835 75.0493Z" fill="#FECF3D" stroke="#2B2A29" stroke-width="2" stroke-miterlimit="22.9256" stroke-linecap="round" stroke-linejoin="round"/>
<path fill-rule="evenodd" clip-rule="evenodd" d="M41.8655 60.6849C46.6542 61.0184 51.3913 62.0488 54.7261 63.4832C58.1125 64.9003 60.1244 66.7129 60.0748 68.4224C60.0729 70.1319 58.0415 71.7155 54.4692 72.6935C50.9032 73.672 45.9074 74.0331 40.8961 73.6654C35.8849 73.2872 30.9968 72.1844 27.616 70.6869C24.2221 69.1893 22.4532 67.321 22.7059 65.6303C22.9113 63.9311 25.1703 62.4383 28.7312 61.541C32.2429 60.617 37.0797 60.3033 41.8655 60.6849Z" fill="#FECF3D" stroke="#2B2A29" stroke-width="2" stroke-miterlimit="22.9256"/>
<path d="M51.6542 73.832L51.2542 79.2257" stroke="#2B2A29" stroke-width="2" stroke-miterlimit="22.9256" stroke-linecap="round" stroke-linejoin="round"/>
<path d="M40.8961 73.665L40.5 79.5" stroke="#2B2A29" stroke-width="2" stroke-miterlimit="22.9256" stroke-linecap="round" stroke-linejoin="round"/>
<path d="M29.1941 71.3186L28.5 77" stroke="#2B2A29" stroke-width="2" stroke-miterlimit="22.9256" stroke-linecap="round" stroke-linejoin="round"/>
<path fill-rule="evenodd" clip-rule="evenodd" d="M75.6301 76.434C74.9265 77.9392 72.4912 78.6229 68.9055 78.2392C65.2285 77.848 60.4458 76.3599 55.9149 74.1875C51.3875 72.0054 47.2396 69.194 44.6396 66.5651C42.0265 63.9314 41.0621 61.5462 41.9146 60.065L44.7384 54.1991L78.5074 70.4439L75.6301 76.434Z" fill="#FECF3D" stroke="#2B2A29" stroke-width="2" stroke-miterlimit="22.9256" stroke-linecap="round" stroke-linejoin="round"/>
<path fill-rule="evenodd" clip-rule="evenodd" d="M64.381 56.5915C68.7173 58.6507 72.7509 61.3398 75.3317 63.8929C77.9667 66.4487 79.1778 68.8708 78.5073 70.4442C77.8813 72.0349 75.4119 72.7674 71.7292 72.3733C68.0522 71.9821 63.2695 70.4939 58.7386 68.3216C54.2115 66.1397 50.0637 63.328 47.4632 60.6994C44.8505 58.0659 43.886 55.6807 44.7387 54.199C45.5503 52.6922 48.1985 52.1273 51.8411 52.5924C55.4477 53.0145 60.0651 54.4887 64.381 56.5915Z" fill="#FECF3D" stroke="#2B2A29" stroke-width="2" stroke-miterlimit="22.9256"/>
<path d="M68.6927 72.4054L66.3507 77.2805" stroke="#2B2A29" stroke-width="2" stroke-miterlimit="22.9256" stroke-linecap="round" stroke-linejoin="round"/>
<path d="M58.7387 68.3213L56 73.5" stroke="#2B2A29" stroke-width="2" stroke-miterlimit="22.9256" stroke-linecap="round" stroke-linejoin="round"/>
<path d="M48.7017 61.8638L45.5 67" stroke="#2B2A29" stroke-width="2" stroke-miterlimit="22.9256" stroke-linecap="round" stroke-linejoin="round"/>
</g>
<defs>
<clipPath id="clip0_112_32">
<rect width="59" height="31" fill="white" transform="translate(21 51)"/>
</clipPath>
</defs>
</svg>
