<svg width="75" height="72" viewBox="0 0 75 72" fill="none" xmlns="http://www.w3.org/2000/svg">
<path d="M74.6667 29.3333C74.6667 45.5337 61.5337 58.6667 45.3333 58.6667C29.133 58.6667 16 45.5337 16 29.3333C16 13.133 29.133 0 45.3333 0C61.5337 0 74.6667 13.133 74.6667 29.3333Z" fill="#E5E3FF"/>
<path d="M6.66674 58.6666H57.3334V63.9999H6.66674V58.6666ZM58.8534 33.7066C58.2934 31.5732 56.0801 30.2932 53.9467 30.8799L39.7867 34.6666L21.3334 17.5199L16.2401 18.8799L27.2801 37.9999L14.0267 41.5466L8.7734 37.4399L4.90674 38.4799L9.76007 46.9066L11.8134 50.4532L16.0801 49.3332L30.2401 45.5199L41.8401 42.4266L56.0001 38.6666C58.1601 38.0266 59.4134 35.8399 58.8534 33.7066Z" fill="#6357FF"/>
</svg>
