<svg width="75" height="72" viewBox="0 0 75 72" fill="none" xmlns="http://www.w3.org/2000/svg">
<path d="M74.6667 29.3333C74.6667 45.5337 61.5337 58.6667 45.3333 58.6667C29.133 58.6667 16 45.5337 16 29.3333C16 13.133 29.133 0 45.3333 0C61.5337 0 74.6667 13.133 74.6667 29.3333Z" fill="#E5E3FF"/>
<path d="M18.6667 58.6667H40.0001V66.6667H18.6667V58.6667ZM45.1734 10.6667C43.7334 10.4267 42.3201 11.3333 42.0267 12.8L39.3334 28.1867C38.7467 28.1067 38.1067 28 37.3334 27.92L36.1867 28L33.0934 12.8C32.8267 11.36 31.4134 10.4267 29.9734 10.6667C28.5334 11.0133 27.6001 12.4267 27.8667 13.8667L31.0667 29.6267L20.9334 34.1333C19.6001 34.6667 18.6667 36.08 18.6667 37.7067V49.3333C18.6667 51.4667 20.6134 53.3333 22.6667 53.3333H40.0001C41.0401 53.3333 41.9734 52.9067 42.6667 52.1867L44.0001 51.0933C44.0001 51.0933 45.3334 50.08 45.3334 48.96V42.6667C45.3334 42.6667 45.3334 39.6267 43.0134 38.1333L47.2267 13.8667C47.5467 12.4267 46.6667 11.0133 45.1734 10.6667Z" fill="#6357FF"/>
</svg>
