<svg width="75" height="72" viewBox="0 0 75 72" fill="none" xmlns="http://www.w3.org/2000/svg">
<path d="M74.6667 29.3333C74.6667 45.5337 61.5337 58.6667 45.3333 58.6667C29.133 58.6667 16 45.5337 16 29.3333C16 13.133 29.133 0 45.3333 0C61.5337 0 74.6667 13.133 74.6667 29.3333Z" fill="#E5E3FF"/>
<path d="M32 50.6667C29.8783 50.6667 27.8435 49.8238 26.3432 48.3235C24.8429 46.8232 24 44.7884 24 42.6667C24 39.68 25.6267 37.0667 28 35.7067L53.8934 20.72L39.1467 46.2667C37.8134 48.88 35.12 50.6667 32 50.6667ZM32 16C36.8267 16 41.3334 17.3333 45.2534 19.52L39.6534 22.7467C37.3334 21.84 34.6667 21.3333 32 21.3333C26.3421 21.3333 20.9159 23.5809 16.9151 27.5817C12.9143 31.5825 10.6667 37.0087 10.6667 42.6667C10.6667 48.56 13.04 53.8933 16.9067 57.7333H16.9334C17.9734 58.7733 17.9734 60.4533 16.9334 61.4933C15.8934 62.5333 14.1867 62.5333 13.1467 61.52C8.32004 56.6933 5.33337 50.0267 5.33337 42.6667C5.33337 35.5942 8.14289 28.8115 13.1439 23.8105C18.1448 18.8095 24.9276 16 32 16ZM58.6667 42.6667C58.6667 50.0267 55.68 56.6933 50.8534 61.52C49.8134 62.5333 48.1334 62.5333 47.0934 61.4933C46.0534 60.4533 46.0534 58.7733 47.0934 57.7333C50.96 53.8667 53.3334 48.56 53.3334 42.6667C53.3334 40 52.8267 37.3333 51.8934 34.9333L55.12 29.3333C57.3334 33.3333 58.6667 37.8133 58.6667 42.6667Z" fill="#6357FF"/>
</svg>
