<svg width="85" height="85" viewBox="0 0 85 85" fill="none" xmlns="http://www.w3.org/2000/svg">
<rect width="85" height="85" fill="#6B9D52"/>
<g clip-path="url(#clip0_225_465)">
<path d="M42.5142 20.6763C30.4619 20.6763 20.7046 30.4442 20.7046 42.4859C20.7046 54.5381 30.4725 64.2954 42.5142 64.2954C54.5665 64.2954 64.3238 54.5275 64.3238 42.4859C64.3238 30.4336 54.5558 20.6763 42.5142 20.6763ZM42.5142 56.6419C34.6906 56.6419 28.3581 50.3059 28.3581 42.4859C28.3581 34.6659 34.6942 28.3298 42.5142 28.3298C50.3342 28.3298 56.6702 34.6659 56.6702 42.4859C56.6738 50.3059 50.3377 56.6419 42.5142 56.6419Z" fill="white"/>
<path d="M60.024 0.269436C52.204 -0.0953558 32.8346 -0.0776475 25.0075 0.269436C18.1296 0.591727 12.0627 2.25277 7.1717 7.14381C-1.00246 15.318 0.0423283 26.3326 0.0423283 42.4861C0.0423283 59.0186 -0.878505 69.7782 7.1717 77.8284C15.3777 86.0309 26.5517 84.9578 42.514 84.9578C58.8907 84.9578 64.5432 84.9684 70.3338 82.7265C78.2069 79.67 84.1498 72.6328 84.7307 59.9925C85.099 52.169 85.0777 32.8032 84.7307 24.9761C84.0294 10.0551 76.0217 1.0061 60.024 0.269436ZM72.4021 72.4202C67.0436 77.7788 59.6096 77.3007 42.4113 77.3007C24.703 77.3007 17.6019 77.5628 12.4205 72.3671C6.45274 66.4278 7.53295 56.89 7.53295 42.4294C7.53295 22.8617 5.52483 8.76943 25.1634 7.7636C29.6755 7.60423 31.0036 7.5511 42.3617 7.5511L42.5211 7.65735C61.3946 7.65735 76.2023 5.6811 77.0913 25.3161C77.2932 29.7963 77.3392 31.1421 77.3392 42.4826C77.3357 59.9855 77.6686 67.129 72.4021 72.4202Z" fill="white"/>
<path d="M65.188 24.9119C68.0027 24.9119 70.2845 22.6301 70.2845 19.8154C70.2845 17.0008 68.0027 14.719 65.188 14.719C62.3733 14.719 60.0916 17.0008 60.0916 19.8154C60.0916 22.6301 62.3733 24.9119 65.188 24.9119Z" fill="white"/>
</g>
<defs>
<clipPath id="clip0_225_465">
<rect width="85" height="85" fill="white"/>
</clipPath>
</defs>
</svg>
