<svg width="85" height="86" viewBox="0 0 85 86" fill="none" xmlns="http://www.w3.org/2000/svg">
<rect width="85" height="85" fill="#6B9D52"/>
<g clip-path="url(#clip0_225_460)">
<path d="M70.5323 47.1408C69.1581 45.4053 69.5513 44.6333 70.5323 43.082C70.55 43.0643 81.894 27.3889 83.0627 22.0728L83.0698 22.0693C83.6506 20.132 83.0698 18.7083 80.2613 18.7083H70.9679C68.6021 18.7083 67.5112 19.9301 66.9269 21.2972C66.9269 21.2972 62.1952 32.6235 55.5015 39.9653C53.341 42.0868 52.3423 42.7668 51.1629 42.7668C50.5821 42.7668 49.679 42.0868 49.679 40.1495V22.0693C49.679 19.746 49.0167 18.7083 47.0581 18.7083H32.4452C30.9613 18.7083 30.0794 19.792 30.0794 20.8014C30.0794 23.0043 33.4263 23.5108 33.7733 29.7087V43.1564C33.7733 46.1031 33.2385 46.6449 32.0521 46.6449C28.8929 46.6449 21.2252 35.2726 16.6812 22.257C15.764 19.7318 14.8679 18.7118 12.4844 18.7118H3.1875C0.534792 18.7118 0 19.9337 0 21.3008C0 23.7162 3.15917 35.726 14.6908 51.5926C22.3762 62.4231 33.1996 68.2916 43.0454 68.2916C48.9635 68.2916 49.686 66.9883 49.686 64.7464C49.686 54.3976 49.1513 53.4201 52.1156 53.4201C53.4898 53.4201 55.8556 54.1001 61.3806 59.3241C67.6954 65.5185 68.7331 68.2916 72.2677 68.2916H81.561C84.2102 68.2916 85.5525 66.9883 84.7804 64.417C83.0131 59.0089 71.0706 47.8845 70.5323 47.1408Z" fill="white"/>
</g>
<defs>
<clipPath id="clip0_225_460">
<rect width="85" height="85" fill="white" transform="translate(0 1)"/>
</clipPath>
</defs>
</svg>
