<svg width="92" height="24" viewBox="0 0 92 24" fill="none" xmlns="http://www.w3.org/2000/svg">
<path d="M3.48828 18H0.640625V0H3.48828V18ZM6.06641 11.543C6.06641 10.3008 6.3125 9.18359 6.80469 8.19141C7.29688 7.19141 7.98828 6.42578 8.87891 5.89453C9.76953 5.35547 10.793 5.08594 11.9492 5.08594C13.6602 5.08594 15.0469 5.63672 16.1094 6.73828C17.1797 7.83984 17.7578 9.30078 17.8438 11.1211L17.8555 11.7891C17.8555 13.0391 17.6133 14.1562 17.1289 15.1406C16.6523 16.125 15.9648 16.8867 15.0664 17.4258C14.1758 17.9648 13.1445 18.2344 11.9727 18.2344C10.1836 18.2344 8.75 17.6406 7.67188 16.4531C6.60156 15.2578 6.06641 13.668 6.06641 11.6836V11.543ZM8.91406 11.7891C8.91406 13.0938 9.18359 14.1172 9.72266 14.8594C10.2617 15.5938 11.0117 15.9609 11.9727 15.9609C12.9336 15.9609 13.6797 15.5859 14.2109 14.8359C14.75 14.0859 15.0195 12.9883 15.0195 11.543C15.0195 10.2617 14.7422 9.24609 14.1875 8.49609C13.6406 7.74609 12.8945 7.37109 11.9492 7.37109C11.0195 7.37109 10.2812 7.74219 9.73438 8.48438C9.1875 9.21875 8.91406 10.3203 8.91406 11.7891ZM19.7656 11.5664C19.7656 9.59766 20.2266 8.02734 21.1484 6.85547C22.0781 5.67578 23.3086 5.08594 24.8398 5.08594C26.2852 5.08594 27.4219 5.58984 28.25 6.59766L28.3789 5.32031H30.9453V17.6133C30.9453 19.2773 30.4258 20.5898 29.3867 21.5508C28.3555 22.5117 26.9609 22.9922 25.2031 22.9922C24.2734 22.9922 23.3633 22.7969 22.4727 22.4062C21.5898 22.0234 20.918 21.5195 20.457 20.8945L21.8047 19.1836C22.6797 20.2227 23.7578 20.7422 25.0391 20.7422C25.9844 20.7422 26.7305 20.4844 27.2773 19.9688C27.8242 19.4609 28.0977 18.7109 28.0977 17.7188V16.8633C27.2773 17.7773 26.1836 18.2344 24.8164 18.2344C23.332 18.2344 22.1172 17.6445 21.1719 16.4648C20.2344 15.2852 19.7656 13.6523 19.7656 11.5664ZM22.6016 11.8125C22.6016 13.0859 22.8594 14.0898 23.375 14.8242C23.8984 15.5508 24.6211 15.9141 25.543 15.9141C26.6914 15.9141 27.543 15.4219 28.0977 14.4375V8.85938C27.5586 7.89844 26.7148 7.41797 25.5664 7.41797C24.6289 7.41797 23.8984 7.78906 23.375 8.53125C22.8594 9.27344 22.6016 10.3672 22.6016 11.8125ZM33.3477 11.543C33.3477 10.3008 33.5938 9.18359 34.0859 8.19141C34.5781 7.19141 35.2695 6.42578 36.1602 5.89453C37.0508 5.35547 38.0742 5.08594 39.2305 5.08594C40.9414 5.08594 42.3281 5.63672 43.3906 6.73828C44.4609 7.83984 45.0391 9.30078 45.125 11.1211L45.1367 11.7891C45.1367 13.0391 44.8945 14.1562 44.4102 15.1406C43.9336 16.125 43.2461 16.8867 42.3477 17.4258C41.457 17.9648 40.4258 18.2344 39.2539 18.2344C37.4648 18.2344 36.0312 17.6406 34.9531 16.4531C33.8828 15.2578 33.3477 13.668 33.3477 11.6836V11.543ZM36.1953 11.7891C36.1953 13.0938 36.4648 14.1172 37.0039 14.8594C37.543 15.5938 38.293 15.9609 39.2539 15.9609C40.2148 15.9609 40.9609 15.5859 41.4922 14.8359C42.0312 14.0859 42.3008 12.9883 42.3008 11.543C42.3008 10.2617 42.0234 9.24609 41.4688 8.49609C40.9219 7.74609 40.1758 7.37109 39.2305 7.37109C38.3008 7.37109 37.5625 7.74219 37.0156 8.48438C36.4688 9.21875 36.1953 10.3203 36.1953 11.7891Z" fill="white"/>
<path d="M51.1133 2.23828V5.32031H53.3516V7.42969H51.1133V14.5078C51.1133 14.9922 51.207 15.3438 51.3945 15.5625C51.5898 15.7734 51.9336 15.8789 52.4258 15.8789C52.7539 15.8789 53.0859 15.8398 53.4219 15.7617V17.9648C52.7734 18.1445 52.1484 18.2344 51.5469 18.2344C49.3594 18.2344 48.2656 17.0273 48.2656 14.6133V7.42969H46.1797V5.32031H48.2656V2.23828H51.1133ZM59.9727 13.9219L62.5508 5.32031H65.5859L60.5469 19.9219C59.7734 22.0547 58.4609 23.1211 56.6094 23.1211C56.1953 23.1211 55.7383 23.0508 55.2383 22.9102V20.707L55.7773 20.7422C56.4961 20.7422 57.0352 20.6094 57.3945 20.3438C57.7617 20.0859 58.0508 19.6484 58.2617 19.0312L58.6719 17.9414L54.2188 5.32031H57.2891L59.9727 13.9219ZM78.3359 11.7891C78.3359 13.75 77.8906 15.3164 77 16.4883C76.1094 17.6523 74.9141 18.2344 73.4141 18.2344C72.0234 18.2344 70.9102 17.7773 70.0742 16.8633V22.875H67.2266V5.32031H69.8516L69.9688 6.60938C70.8047 5.59375 71.9414 5.08594 73.3789 5.08594C74.9258 5.08594 76.1367 5.66406 77.0117 6.82031C77.8945 7.96875 78.3359 9.56641 78.3359 11.6133V11.7891ZM75.5 11.543C75.5 10.2773 75.2461 9.27344 74.7383 8.53125C74.2383 7.78906 73.5195 7.41797 72.582 7.41797C71.418 7.41797 70.582 7.89844 70.0742 8.85938V14.4844C70.5898 15.4688 71.4336 15.9609 72.6055 15.9609C73.5117 15.9609 74.2188 15.5977 74.7266 14.8711C75.2422 14.1367 75.5 13.0273 75.5 11.543ZM86.3398 18.2344C84.5352 18.2344 83.0703 17.668 81.9453 16.5352C80.8281 15.3945 80.2695 13.8789 80.2695 11.9883V11.6367C80.2695 10.3711 80.5117 9.24219 80.9961 8.25C81.4883 7.25 82.1758 6.47266 83.0586 5.91797C83.9414 5.36328 84.9258 5.08594 86.0117 5.08594C87.7383 5.08594 89.0703 5.63672 90.0078 6.73828C90.9531 7.83984 91.4258 9.39844 91.4258 11.4141V12.5625H83.1406C83.2266 13.6094 83.5742 14.4375 84.1836 15.0469C84.8008 15.6562 85.5742 15.9609 86.5039 15.9609C87.8086 15.9609 88.8711 15.4336 89.6914 14.3789L91.2266 15.8438C90.7188 16.6016 90.0391 17.1914 89.1875 17.6133C88.3438 18.0273 87.3945 18.2344 86.3398 18.2344ZM86 7.37109C85.2188 7.37109 84.5859 7.64453 84.1016 8.19141C83.625 8.73828 83.3203 9.5 83.1875 10.4766H88.6133V10.2656C88.5508 9.3125 88.2969 8.59375 87.8516 8.10938C87.4062 7.61719 86.7891 7.37109 86 7.37109Z" fill="#ABAAB0"/>
</svg>
