<svg width="27" height="36" viewBox="0 0 27 36" fill="none" xmlns="http://www.w3.org/2000/svg">
<g clip-path="url(#clip0_81_16)">
<path d="M13.5 36C13.7893 36 14.0786 35.8579 14.2232 35.6684C14.7536 35.0526 27 20.3211 27 13.2632C27 5.96842 20.925 0 13.5 0C6.075 0 0 5.96842 0 13.2632C0 20.3211 12.2464 35.0526 12.7768 35.6684C12.9214 35.8579 13.2107 36 13.5 36ZM13.5 1.89474C19.8643 1.89474 25.0714 7.01053 25.0714 13.2632C25.0714 18.7105 16.1518 30.2211 13.5 33.5368C9.69107 28.8 1.92857 18.1895 1.92857 13.2632C1.92857 7.01053 7.13571 1.89474 13.5 1.89474Z" fill="#2B2A29"/>
<path d="M19 12C19 8.7 16.525 6 13.5 6C10.475 6 8 8.7 8 12C8 15.3 10.475 18 13.5 18C16.525 18 19 15.3 19 12ZM9.83333 12C9.83333 9.8 11.4833 8 13.5 8C15.5167 8 17.1667 9.8 17.1667 12C17.1667 14.2 15.5167 16 13.5 16C11.4833 16 9.83333 14.2 9.83333 12Z" fill="#2B2A29"/>
</g>
<defs>
<clipPath id="clip0_81_16">
<rect width="27" height="36" fill="white"/>
</clipPath>
</defs>
</svg>
