<svg width="46" height="37" viewBox="0 0 46 37" fill="none" xmlns="http://www.w3.org/2000/svg">
<path d="M9.13155 4.94168L9.08091 4.8166C8.81314 4.14908 8.64971 3.81301 8.50085 3.74165C8.1924 3.59357 7.3768 3.62426 5.83918 3.68181L4.63608 3.72402C4.18416 3.73628 2.99259 3.73092 2.14934 3.72632L1.40738 3.72323C0.663125 3.72093 0.0623428 3.11401 0.0646428 2.36975C0.0669428 1.6255 0.673858 1.02474 1.41812 1.02704L2.16007 1.0301C2.97493 1.03394 4.12585 1.0393 4.56473 1.0278L5.74402 0.985593C7.71133 0.911949 8.75251 0.872038 9.66403 1.30939C10.6316 1.77283 11.039 2.47181 11.5738 3.78539C13.9961 7.98699 16.248 7.97319 20.6745 7.9471L41.8068 7.95093C42.3531 7.94557 42.8587 8.0269 43.3145 8.17727L43.4449 8.22792C44.1569 8.49108 44.7324 8.92537 45.1421 9.49929C45.5741 10.1039 45.8081 10.8397 45.8081 11.6622C45.8081 12.1571 45.7176 12.6965 45.5281 13.2674L42.5096 22.3512C41.7408 24.666 41.0686 25.9589 39.9039 26.7523C38.7292 27.5533 37.3382 27.6745 35.0962 27.6745L18.7747 27.673C16.9478 27.6784 15.246 27.2073 13.9163 26.1668C12.6955 25.2093 11.8209 23.8067 11.4948 21.8939C11.2354 20.3716 11.0129 17.9516 10.7804 15.4035C10.4229 11.4927 10.0339 7.25655 9.45918 5.7803L9.13155 4.94168ZM34.6642 28.8063C35.7315 28.8063 36.7044 29.2421 37.4095 29.9464C38.1192 30.6569 38.5551 31.6298 38.5551 32.6971C38.5551 33.7644 38.1192 34.7365 37.4149 35.4424C36.7044 36.1521 35.7315 36.588 34.6642 36.588C33.5969 36.588 32.6248 36.1521 31.9189 35.4478C31.2092 34.7365 30.7733 33.7644 30.7733 32.6971C30.7733 31.6298 31.2092 30.6569 31.9135 29.9518C32.6248 29.2421 33.5969 28.8063 34.6642 28.8063ZM35.5036 31.857C35.2911 31.6444 34.9941 31.5132 34.6642 31.5132C34.3343 31.5132 34.0373 31.6444 33.8271 31.8547C33.6115 32.0702 33.4803 32.3672 33.4803 32.6971C33.4803 33.027 33.6115 33.324 33.8217 33.5342C34.0373 33.7498 34.3343 33.881 34.6642 33.881C34.9941 33.881 35.2911 33.7498 35.5013 33.5396C35.7169 33.324 35.8481 33.027 35.8481 32.6971C35.8481 32.3672 35.7169 32.0702 35.5036 31.857ZM19.819 28.8063C20.8862 28.8063 21.8591 29.2421 22.5643 29.9464C23.274 30.6569 23.7098 31.6298 23.7098 32.6971C23.7098 33.7644 23.274 34.7365 22.5696 35.4424C21.8591 36.1521 20.8862 36.588 19.819 36.588C18.7517 36.588 17.7795 36.1521 17.0736 35.4478C16.3639 34.7365 15.9281 33.7644 15.9281 32.6971C15.9281 31.6298 16.3639 30.6569 17.0683 29.9518C17.7795 29.2421 18.7517 28.8063 19.819 28.8063ZM20.6583 31.857C20.4458 31.6444 20.1489 31.5132 19.819 31.5132C19.489 31.5132 19.1921 31.6444 18.9818 31.8547C18.7662 32.0702 18.635 32.3672 18.635 32.6971C18.635 33.027 18.7662 33.324 18.9765 33.5342C19.1921 33.7498 19.489 33.881 19.819 33.881C20.1489 33.881 20.4458 33.7498 20.656 33.5396C20.8717 33.324 21.0029 33.027 21.0029 32.6971C21.0029 32.3672 20.8717 32.0702 20.6583 31.857ZM20.686 10.6433C17.2954 10.664 14.9391 10.6778 12.8751 9.36195C13.0991 11.1558 13.2864 13.1976 13.4659 15.161C13.6899 17.614 13.904 19.9442 14.1587 21.4396C14.3628 22.6397 14.8738 23.4906 15.5767 24.0415C16.3946 24.6814 17.5209 24.9714 18.7747 24.9714L35.0962 24.9729C36.8041 24.9676 37.8131 24.9085 38.3817 24.521C38.9587 24.1282 39.3799 23.222 39.95 21.5056L42.9684 12.4218C43.0574 12.1518 43.1012 11.8963 43.1012 11.6622C43.1012 11.4113 43.0452 11.208 42.9431 11.0645C42.8541 10.9395 42.7168 10.8374 42.5388 10.7668L42.4689 10.7461C42.2848 10.6855 42.063 10.6525 41.8068 10.6525L20.686 10.6433Z" fill="#2B2A29"/>
</svg>
