<svg width="150" height="166" viewBox="0 0 150 166" fill="none" xmlns="http://www.w3.org/2000/svg">
<path fill-rule="evenodd" clip-rule="evenodd" d="M74.9999 2.09766C115.263 2.09766 147.903 34.7373 147.903 75.0004C147.903 115.263 115.263 147.903 74.9999 147.903C34.7369 147.903 2.09717 115.263 2.09717 75.0004C2.09717 34.7373 34.7369 2.09766 74.9999 2.09766Z" fill="#FEFEFE"/>
<path fill-rule="evenodd" clip-rule="evenodd" d="M75.0002 0C116.414 0 150 33.5861 150 74.9999C150 116.415 116.414 150 75.0002 150C33.5861 150 0 116.415 0 74.9999C0 33.5861 33.5861 0 75.0002 0ZM75.0002 3.0209C114.746 3.0209 146.979 35.2546 146.979 74.9999C146.979 114.746 114.746 146.979 75.0002 146.979C35.2545 146.979 3.02098 114.746 3.02098 74.9999C3.02098 35.2546 35.2545 3.0209 75.0002 3.0209Z" fill="#2B2A29"/>
<path fill-rule="evenodd" clip-rule="evenodd" d="M96.608 109.8C94.0579 110.893 91.4963 110.221 89.2246 108.96C86.1841 107.272 84.8123 104.052 84.624 100.769C85.3968 101.024 86.1999 101.167 86.9713 101.164C88.538 101.156 89.9978 100.599 91.011 99.2817L91.2104 99.0225L91.3363 98.7055C91.7442 97.6788 91.703 96.7065 91.3621 95.8428L91.3588 95.844C91.009 94.9633 90.3602 94.2571 89.589 93.7757C89.4349 93.6629 89.3031 93.5465 89.192 93.4282C88.9401 93.1596 88.8329 92.8856 88.8391 92.6238C88.8483 92.2346 89.0388 91.7825 89.3602 91.3159C89.5751 91.0038 89.8484 90.6928 90.169 90.3921C90.6238 89.9654 91.1907 89.552 91.8627 89.2016C96.2629 87.5439 101.659 87.8946 106.027 91.5482C108.378 93.5151 109.084 96.1406 108.921 99.1478C108.424 103.888 103.145 106.758 98.6871 104.994C97.6201 104.571 95.5075 103.226 94.4068 103.842C93.8241 104.168 93.5687 105.129 93.9959 105.725C94.6518 106.64 95.5885 106.79 96.4894 107.367C97.8782 108.255 97.9675 109.218 96.608 109.8ZM96.766 98.0563C95.6562 98.3794 94.5956 100.055 95.9783 100.288C98.8602 100.775 98.1471 101.216 99.3355 101.407C101.089 101.69 101.513 99.9475 100.381 98.7813C99.6701 98.0494 98.0927 97.6703 96.766 98.0563Z" fill="#2B2A29"/>
<path fill-rule="evenodd" clip-rule="evenodd" d="M58.978 58.4764C58.7125 63.9822 59.0868 68.9152 61.9756 72.7465C63.6778 75.0041 68.6298 73.2015 68.8928 69.6191C69.4394 64.8796 69.2452 62.028 70.3442 57.5305C71.5613 52.5491 68.7508 51.1811 66.0553 50.3205C63.304 49.4421 59.2968 51.872 58.978 58.4764ZM65.2565 34.8661C68.37 34.9275 70.8452 37.502 70.7839 40.6155C70.7226 43.729 68.148 46.2042 65.0345 46.143C61.921 46.0816 59.4458 43.5071 59.5071 40.3936C59.5684 37.28 62.143 34.8048 65.2565 34.8661Z" fill="#2B2A29"/>
<path fill-rule="evenodd" clip-rule="evenodd" d="M44.033 45.6735C44.8165 41.1231 45.5168 38.8439 50.2873 38.2039C54.9996 38.1964 56.3199 41.2593 56.9131 45.3891C57.3411 50.6754 57.1231 56.0844 56.0433 61.2475C54.9425 66.2238 53.3349 71.1071 50.6738 75.5394C48.6313 78.6821 46.0671 80.8661 42.1967 81.305C37.7593 81.582 33.2043 79.7052 29.4318 77.5535L29.0706 77.3403L28.715 77.1244L28.3667 76.9058L28.026 76.6854L27.6933 76.4628L27.3683 76.2388L27.0569 76.0163L26.174 75.3437C23.0178 72.6793 20.818 69.6273 19.966 65.5867C19.4102 61.8565 20.6467 58.7343 23.2151 55.7787C26.1836 52.3624 33.0182 50.088 35.8563 53.9642C37.5339 56.365 38.6664 65.3398 42.1101 65.2473C44.961 64.5937 44.4679 58.7749 44.4258 56.6999C44.3143 53.0143 43.527 49.3726 44.033 45.6735Z" fill="#2B2A29"/>
<path fill-rule="evenodd" clip-rule="evenodd" d="M76.9653 41.7577C77.79 39.7639 77.4037 37.8387 78.9559 36.1254C80.7816 34.1099 83.4879 33.0753 86.4057 33.8951C89.3015 35.0539 89.7844 36.7589 88.3754 39.4815C87.6876 40.8103 87.1124 42.2678 86.5922 43.896C85.989 45.7821 86.4924 46.93 88.8173 47.5767C93.9423 49.1891 91.9449 55.1005 86.7487 54.8766C84.5832 54.7832 83.9351 56.2505 83.6733 57.9365C83.2131 60.9027 83.2208 64.1655 83.3872 66.3292C83.7001 70.391 83.2261 72.1705 80.1969 72.6861C74.2433 73.6996 71.7482 68.8732 71.6864 64.4664C71.6481 61.7168 72.5014 58.1544 73.5332 54.8426C74.1867 52.7448 72.268 51.4092 70.9194 50.5647C68.8634 49.2777 69.4617 44.8067 73.4995 44.6554C75.2122 44.5916 75.9652 44.1736 76.9653 41.7577Z" fill="#2B2A29"/>
<path fill-rule="evenodd" clip-rule="evenodd" d="M98.454 65.7337L98.7914 65.8675L99.095 66.0058L99.3959 66.1589L99.6918 66.3218L99.9793 66.4901L100.258 66.6593L100.526 66.826L100.78 66.9855L101.02 67.1335L101.246 67.2668L101.46 67.3819L101.666 67.4743L101.876 67.54L102.129 67.5602L102.455 67.4423L102.709 67.097L102.772 66.7269L102.747 66.4273L102.68 66.1516L102.585 65.8723L102.46 65.5809L102.309 65.2792L102.132 64.969L101.932 64.6552L101.708 64.3431L101.463 64.0375L101.198 63.7448L100.915 63.4701L100.612 63.2204L100.292 63.0017L99.9536 62.8215L99.5829 62.6822L98.9407 62.6034L98.3331 62.7363L97.8107 63.0613L97.4196 63.5697L97.2518 64.2313L97.404 64.8921L97.8328 65.4012L98.454 65.7337ZM93.4103 47.5923L93.4616 47.4329L93.5389 47.2272L93.6266 47.0233L93.7255 46.8197L93.834 46.6184L93.9532 46.4193L94.0828 46.2217L94.2235 46.0256L94.3735 45.8319L94.5338 45.64L94.7037 45.4515L94.8839 45.2652L95.0729 45.0821L95.2725 44.9017L95.4801 44.7249L95.6921 44.5558L96.3434 44.0914L97.0509 43.6629L97.8148 43.2699L98.631 42.9146L99.4935 42.6011L100.398 42.3305L101.339 42.1064L102.312 41.9305L103.31 41.8058L104.331 41.7341L105.367 41.7175L106.416 41.7581L107.471 41.8589L108.528 42.0209L109.581 42.2468L110.628 42.5383L111.66 42.8977L112.675 43.3268L113.668 43.8279L114.635 44.402L115.569 45.0515L116.468 45.7795L117.326 46.5868L118.14 47.4757L118.903 48.449L119.613 49.5087L120.265 50.6578L120.854 51.8978L121.375 53.2319L121.824 54.6628L122.196 56.1938L122.488 57.8319L122.558 58.3476L122.62 58.8713L122.671 59.3971L122.713 59.9234L122.745 60.452L122.767 60.9817L122.78 61.5128L122.784 62.0443L122.778 62.577L122.762 63.1108L122.737 63.6447L122.704 64.1794L122.662 64.7141L122.611 65.2485L122.55 65.7836L122.483 66.3175L122.405 66.8514L122.319 67.385L122.225 67.9178L122.123 68.4492L122.013 68.9801L121.894 69.5098L121.768 70.0379L121.634 70.564L121.492 71.0891L121.343 71.6119L121.185 72.1331L121.021 72.6515L120.849 73.1677L120.67 73.6816L120.484 74.1928L120.292 74.6992L120.089 75.2044L119.883 75.6858L119.672 76.1463L119.458 76.5852L119.239 77.0026L119.017 77.3996L118.79 77.7754L118.56 78.1311L118.326 78.4659L118.088 78.7808L117.847 79.0762L117.602 79.3519L117.355 79.6087L117.104 79.846L116.849 80.0653L116.591 80.2657L116.329 80.4493L116.064 80.6147L115.795 80.7633L115.522 80.8947L115.245 81.0097L114.963 81.1078L114.677 81.1898L114.387 81.2554L114.091 81.3053L113.79 81.3387L113.485 81.356L113.174 81.3572L112.859 81.3427L112.538 81.3118L112.213 81.2659L111.882 81.2025L111.527 81.1197L111.179 81.0228L110.838 80.9129L110.504 80.7904L110.174 80.6562L109.851 80.5108L109.532 80.3551L109.217 80.1889L108.906 80.0141L108.598 79.8311L108.294 79.6402L107.993 79.4419L107.693 79.2373L107.395 79.0271L107.099 78.8122L106.804 78.5928L106.508 78.3701L106.213 78.1443C103.111 75.7667 98.7912 74.5621 95.0287 73.7248C91.7629 73.0139 87.5741 72.589 85.9205 67.5584C84.7982 62.1543 87.0772 59.1193 89.0797 57.2391C90.615 55.7977 93.2084 54.5942 95.919 55.1545C98.8629 55.7629 100.164 58.486 102.512 60.0381C104.039 60.7588 105.066 59.8149 106.15 58.3946L106.331 57.9733L106.456 57.5973L106.546 57.2178L106.6 56.836L106.619 56.4563L106.605 56.0811L106.556 55.7123L106.474 55.3501L106.361 54.9986L106.218 54.6579L106.045 54.3292L105.846 54.0118L105.618 53.7079L105.366 53.4172L105.088 53.1403L104.785 52.877L104.457 52.6285L104.107 52.3955L103.733 52.1784L103.337 51.9771L102.917 51.7933L102.476 51.6272L102.014 51.4796L101.53 51.3509L101.025 51.2425L100.501 51.1548L99.9565 51.0886L99.3925 51.0444L98.8093 51.0237L98.2072 51.027L97.5869 51.0554L96.9647 51.1076L96.5271 51.1283L96.1234 51.1011L95.7388 51.0302L95.3759 50.9176L95.0355 50.768L94.7218 50.5833L94.4356 50.368L94.1801 50.124L93.9556 49.8559L93.7655 49.5668L93.6109 49.2607L93.4933 48.9404L93.4131 48.6085L93.3726 48.2685L93.3721 47.9205L93.4103 47.5923Z" fill="#2B2A29"/>
<path fill-rule="evenodd" clip-rule="evenodd" d="M63.9315 101.211L64.1819 101.51L64.3716 101.752L64.5563 101.997L64.7344 102.245L64.9067 102.494L65.0712 102.746L65.2301 103L65.3816 103.257L65.5266 103.515L65.6644 103.775L65.7958 104.038L65.92 104.303L66.0375 104.569L66.1474 104.837L66.2507 105.108L66.3465 105.381L66.4352 105.654L66.5575 106.074L66.6666 106.496L66.763 106.919L66.846 107.343L66.9156 107.768L66.9724 108.192L67.0158 108.618L67.0465 109.043L67.0636 109.467L67.0677 109.89L67.0586 110.312L67.0367 110.732L67.0014 111.15L66.9531 111.565L66.8916 111.978L66.817 112.387L66.7292 112.793L66.6282 113.195L66.5141 113.593L66.3873 113.986L66.2469 114.375L66.094 114.758L65.9276 115.135L65.7489 115.507L65.5561 115.873L65.3507 116.231L65.1322 116.583L64.9011 116.928L64.6561 117.265L64.3986 117.594L64.1278 117.916L63.8439 118.228L63.5825 118.496L63.31 118.757L63.0266 119.011L62.7337 119.257L62.4308 119.497L62.1187 119.728L61.7981 119.951L61.4691 120.166L61.132 120.373L60.7882 120.571L60.437 120.76L60.0802 120.94L59.7171 121.11L59.3485 121.272L58.9754 121.423L58.5982 121.564L58.2164 121.696L57.8318 121.817L57.444 121.928L57.0539 122.028L56.6617 122.117L56.2686 122.194L55.8744 122.261L55.4801 122.317L55.0852 122.36L54.6915 122.392L54.2984 122.412L53.9073 122.42L53.5178 122.415L53.131 122.398L52.7476 122.369L52.3672 122.326L52.0109 122.275L51.6563 122.213L51.3041 122.14L50.9548 122.056L50.6077 121.961L50.2639 121.856L49.9234 121.74L49.5867 121.613L49.2536 121.475L48.9252 121.327L48.6007 121.169L48.2813 120.999L47.9668 120.819L47.6579 120.628L47.3544 120.427L47.0567 120.215L46.7645 119.993L46.4798 119.76L46.2013 119.516L45.9298 119.262L45.6655 118.997L45.4088 118.722L45.1599 118.437L44.919 118.14L44.6857 117.833L44.4622 117.516L44.2466 117.188L44.0408 116.849L43.8438 116.5L43.6567 116.14L43.4796 115.77L43.3154 115.394L43.0554 114.689L42.8703 114.002L42.7529 113.328L42.7008 112.669L42.7093 112.025L42.7753 111.398L42.8956 110.789L43.0675 110.2L43.2872 109.631L43.5522 109.086L43.8587 108.566L44.2043 108.072L44.5852 107.606L44.9984 107.171L45.4396 106.77L45.9066 106.402L46.3946 106.071L46.9011 105.779L47.4216 105.526L47.9536 105.316L48.492 105.15L49.0341 105.029L49.5764 104.955L50.1151 104.929L50.6461 104.954L51.1676 105.029L51.6765 105.157L52.17 105.338L52.6455 105.576L53.1011 105.871L53.5342 106.227L54.1693 106.878C55.583 106.196 56.2901 105.344 56.3001 103.752C56.3105 102.131 55.6325 100.744 54.6915 99.4521C53.4628 97.7655 49.9446 95.1654 48.1748 94.0796C46.842 96.6563 42.8269 98.2322 40.459 95.4242C38.3348 92.9047 39.9262 89.2457 43.171 88.3578C45.2638 87.7851 46.5063 87.6374 48.8766 86.0077C50.0342 85.2115 51.4628 83.5791 52.0139 83.7574C51.658 84.8419 51.5253 86.1603 51.7061 87.7877C51.8831 89.3818 52.3083 91.0724 52.9577 92.6855C53.8951 95.0149 55.3156 97.2135 57.1555 98.7845C59.0304 100.386 61.3075 101.347 63.9315 101.211Z" fill="#2B2A29"/>
<path fill-rule="evenodd" clip-rule="evenodd" d="M88.8449 79.8007C93.0982 78.7839 96.0505 79.3461 97.9154 81.1799C99.732 82.9661 99.4924 85.5594 95.0941 85.8826C92.2036 86.0949 89.9715 87.3226 88.5424 88.6633C86.2298 90.833 85.4431 93.8017 88.3267 95.7879C89.0198 96.2189 89.4793 96.9612 89.1335 97.8319C88.0201 99.2795 85.6532 98.9307 83.9642 97.8559C76.6838 93.2235 80.3502 81.8314 88.8449 79.8007Z" fill="#2B2A29"/>
<path fill-rule="evenodd" clip-rule="evenodd" d="M78.448 100.248C79.2315 102.988 77.8395 104.641 75.6622 104.837C72.7354 105.099 71.7816 103.214 71.4477 100.618C70.9444 96.7006 72.0281 94.2893 73.211 90.2413C74.1365 87.0747 78.4181 87.0229 77.803 90.5124C77.2282 93.7743 77.3711 96.483 78.448 100.248Z" fill="#2B2A29"/>
<path fill-rule="evenodd" clip-rule="evenodd" d="M60.8288 84.2201C60.6728 86.7148 62.1965 88.2187 62.9549 88.5147C66.2538 89.8035 67.4554 86.9648 66.0902 80.6499C65.7376 79.0183 66.7649 78.2288 68.392 78.0203C70.0946 77.9479 70.5191 78.1802 70.8814 80.0167C71.3331 82.3057 71.2714 86.0824 71.0028 88.1847C70.2528 94.0563 68.9735 97.2175 66.4468 98.2345C59.4074 101.068 54.7298 93.4994 54.0665 87.5276C53.6931 84.1651 54.9304 82.8024 56.5296 82.0891C58.7817 81.0842 61.0533 80.6292 60.8288 84.2201Z" fill="#2B2A29"/>
<path fill-rule="evenodd" clip-rule="evenodd" d="M76.8867 77.5777C79.0871 77.5004 80.9343 79.222 81.0116 81.4224C81.0891 83.6229 79.3674 85.4701 77.1671 85.5474C74.9666 85.6248 73.1195 83.9031 73.0421 81.7027C72.9647 79.5024 74.6863 77.6552 76.8867 77.5777Z" fill="#2B2A29"/>
<path fill-rule="evenodd" clip-rule="evenodd" d="M123.751 33.1982C127.131 33.1982 129.871 35.9386 129.871 39.3187C129.871 42.6989 127.131 45.4393 123.751 45.4393C120.371 45.4393 117.63 42.6989 117.63 39.3187C117.63 35.9386 120.371 33.1982 123.751 33.1982ZM121.245 42.6584V35.9866H124.202C124.797 35.9866 125.248 36.0473 125.557 36.1668C125.866 36.2863 126.113 36.4975 126.298 36.8004C126.483 37.1032 126.575 37.4387 126.575 37.8053C126.575 38.2788 126.421 38.6781 126.115 39.0025C125.809 39.327 125.337 39.5322 124.697 39.6207C124.932 39.7325 125.11 39.8437 125.23 39.9531C125.488 40.1883 125.733 40.485 125.96 40.8414L127.114 42.6584H126.011L125.129 41.27C124.873 40.8674 124.66 40.5612 124.494 40.349C124.327 40.136 124.177 39.9886 124.045 39.9034C123.915 39.8194 123.78 39.7579 123.642 39.7263C123.544 39.7036 123.38 39.6953 123.152 39.6953H122.13V42.6584H121.245ZM122.13 38.9313H124.025C124.428 38.9313 124.742 38.8884 124.969 38.8053C125.195 38.7224 125.367 38.5889 125.485 38.4047C125.602 38.221 125.662 38.0227 125.662 37.8068C125.662 37.4915 125.548 37.2304 125.32 37.0271C125.092 36.8236 124.731 36.7228 124.239 36.7228H122.13V38.9313Z" fill="#2B2A29"/>
<path d="M44.6906 23.4006L46.0631 22.36C46.2823 22.6129 46.5295 22.7618 46.8051 22.8041C47.08 22.8491 47.3932 22.7748 47.7418 22.5853C48.1267 22.3762 48.3775 22.1487 48.4962 21.9017C48.5723 21.7317 48.5647 21.5627 48.4743 21.3962C48.4136 21.2844 48.3265 21.2099 48.2157 21.1741C48.1031 21.144 47.9007 21.1674 47.6117 21.2472C46.2656 21.6344 45.3734 21.8055 44.9328 21.7616C44.3206 21.6987 43.8685 21.3966 43.575 20.8564C43.3089 20.3667 43.2795 19.8515 43.4837 19.3098C43.6881 18.7681 44.1941 18.278 45.0019 17.8391C45.7716 17.4208 46.4131 17.2362 46.9238 17.2841C47.4353 17.3338 47.8959 17.5658 48.3048 17.9824L47.0477 19.0025C46.868 18.8146 46.6601 18.7075 46.4283 18.6813C46.1964 18.6553 45.9248 18.728 45.6123 18.8977C45.218 19.1118 44.9657 19.3191 44.8538 19.5226C44.7822 19.6624 44.7813 19.7938 44.8481 19.9166C44.9059 20.0232 45.0039 20.0872 45.1434 20.1073C45.3329 20.133 45.873 20.0199 46.7664 19.7686C47.6596 19.5172 48.3341 19.4364 48.7909 19.5276C49.2468 19.6215 49.6036 19.9075 49.8609 20.381C50.1407 20.8961 50.1671 21.4574 49.9365 22.0624C49.7074 22.6668 49.1707 23.1993 48.325 23.6588C47.559 24.075 46.8672 24.2495 46.2512 24.184C45.637 24.1174 45.1164 23.8574 44.6906 23.4006ZM49.4208 14.8652L48.8228 13.4166L50.3853 12.7715L50.9833 14.2202L49.4208 14.8652ZM52.1943 21.583L49.7504 15.6634L51.3129 15.0183L53.7566 20.938L52.1943 21.583ZM60.9529 18.6332L59.3309 19.1099L58.411 15.9784C58.2163 15.3154 58.0549 14.8977 57.9288 14.7246C57.8006 14.5503 57.6441 14.4333 57.4543 14.3711C57.2646 14.3089 57.0594 14.3114 56.8384 14.3763C56.5543 14.4597 56.3225 14.6114 56.1427 14.8315C55.961 15.052 55.8675 15.3023 55.8586 15.5793C55.8487 15.8588 55.9451 16.3406 56.1469 17.0273L56.9632 19.8054L55.3413 20.2821L53.536 14.1376L55.0397 13.6958L55.3046 14.5976C55.6407 13.7507 56.2168 13.2085 57.0356 12.9679C57.3947 12.8625 57.7434 12.8307 58.079 12.8715C58.4172 12.9135 58.6903 13.0112 58.9007 13.1658C59.1137 13.322 59.287 13.5176 59.421 13.7548C59.557 13.9915 59.6932 14.3457 59.8322 14.8192L60.9529 18.6332ZM67.4004 12.884L65.8038 13.444C65.6958 13.1261 65.5299 12.9009 65.3058 12.7666C65.0822 12.6343 64.8149 12.5923 64.5023 12.6433C64.0863 12.7109 63.7767 12.9094 63.5761 13.2379C63.3754 13.5665 63.3301 14.0677 63.44 14.7436C63.5623 15.4947 63.7743 16.004 64.0768 16.2735C64.379 16.5431 64.7411 16.6424 65.1634 16.5738C65.48 16.5221 65.7249 16.3885 65.8963 16.1751C66.07 15.9613 66.1614 15.6277 66.1725 15.1716L67.8624 15.1841C67.8149 15.9669 67.581 16.5905 67.1607 17.0548C66.7403 17.519 66.1241 17.8173 65.3105 17.95C64.3887 18.1 63.6043 17.9278 62.9614 17.4344C62.3162 16.9395 61.9105 16.1764 61.7422 15.143C61.572 14.0976 61.716 13.2408 62.171 12.5686C62.6263 11.8965 63.324 11.485 64.2638 11.332C65.0309 11.207 65.6691 11.274 66.1776 11.5308C66.6841 11.7879 67.091 12.2383 67.4004 12.884ZM72.9438 14.9142L74.6508 15.0696C74.4822 15.7031 74.1753 16.1989 73.7343 16.558C73.2913 16.9155 72.7191 17.1216 72.0199 17.1747C70.9103 17.2587 70.0607 16.9581 69.4745 16.2722C69.0099 15.7219 68.7432 15.0038 68.6758 14.1157C68.5956 13.0576 68.8095 12.2061 69.3158 11.5655C69.8218 10.9229 70.4985 10.5706 71.3433 10.5064C72.2907 10.4347 73.0631 10.6917 73.66 11.2777C74.2552 11.8636 74.5907 12.8055 74.6642 14.1034L70.4439 14.4232C70.4941 14.9226 70.659 15.3019 70.9406 15.5612C71.22 15.8204 71.5546 15.9354 71.9402 15.9061C72.2046 15.8862 72.4206 15.7975 72.5883 15.6404C72.758 15.4832 72.8756 15.2413 72.9438 14.9142ZM72.9125 13.1967C72.8633 12.7074 72.7098 12.3437 72.4506 12.1077C72.1911 11.8695 71.8903 11.7642 71.5459 11.7905C71.1788 11.8182 70.8856 11.9767 70.666 12.2635C70.4464 12.5504 70.3572 12.9263 70.3965 13.3873L72.9125 13.1967ZM85.216 16.2521L84.9956 17.8036L79.1193 16.9691C79.2663 16.3877 79.537 15.8569 79.9295 15.3746C80.322 14.8924 81.0506 14.2812 82.1114 13.5407C82.9667 12.9435 83.4967 12.5306 83.7035 12.3046C83.9826 11.9911 84.1472 11.6654 84.1955 11.3254C84.2487 10.9509 84.1898 10.6496 84.0167 10.4195C83.8459 10.1894 83.583 10.0505 83.2308 10.0004C82.8807 9.95066 82.5888 10.0172 82.3509 10.1994C82.1155 10.3799 81.9478 10.7133 81.8455 11.1995L80.1954 10.7948C80.4265 9.88469 80.8324 9.26515 81.4149 8.93644C81.9972 8.60993 82.6815 8.50155 83.4694 8.61349C84.3328 8.73604 84.9775 9.06656 85.406 9.60286C85.8327 10.1392 85.9966 10.7546 85.898 11.4488C85.8419 11.8437 85.7174 12.2083 85.526 12.5468C85.335 12.8832 85.0581 13.2241 84.6951 13.5712C84.4565 13.8033 84.0351 14.1234 83.4365 14.535C82.8361 14.9461 82.4544 15.2202 82.291 15.3611C82.1261 15.4996 81.9897 15.6402 81.8807 15.7784L85.216 16.2521ZM90.8753 9.93543C91.71 10.1237 92.2945 10.5697 92.6311 11.2738C93.0316 12.1063 93.0478 13.3431 92.6785 14.9803C92.3097 16.6152 91.7617 17.7272 91.0368 18.314C90.4364 18.7983 89.72 18.9467 88.8853 18.7584C88.0467 18.5693 87.4434 18.0938 87.0756 17.3321C86.7076 16.5702 86.711 15.3587 87.0849 13.7016C87.4518 12.0747 87.999 10.9669 88.7237 10.3799C89.3242 9.89552 90.0407 9.74715 90.8753 9.93543ZM90.5657 11.3077C90.3693 11.2633 90.1781 11.2877 89.9969 11.3817C89.8137 11.4731 89.6418 11.6748 89.4829 11.9867C89.2742 12.3887 89.0551 13.0983 88.8266 14.1113C88.5977 15.1266 88.4907 15.8339 88.5057 16.2357C88.5204 16.6375 88.5897 16.9188 88.7137 17.0797C88.8377 17.2403 88.9981 17.342 89.1947 17.3863C89.3914 17.4306 89.5824 17.4062 89.766 17.3127C89.9468 17.2206 90.1187 17.0192 90.2776 16.7072C90.4855 16.3091 90.7042 15.6017 90.9331 14.5866C91.1617 13.5734 91.2686 12.8659 91.2537 12.4641C91.2388 12.0623 91.17 11.779 91.0459 11.6184C90.9225 11.4557 90.7624 11.352 90.5657 11.3077ZM98.6032 12.3536C99.4035 12.6563 99.9204 13.1791 100.156 13.9234C100.437 14.8034 100.28 16.0305 99.6871 17.6003C99.0944 19.168 98.3971 20.1929 97.5978 20.6733C96.9356 21.0694 96.2056 21.1165 95.4053 20.8141C94.6012 20.5101 94.0698 19.9554 93.8114 19.1499C93.5533 18.3441 93.7252 17.1448 94.3258 15.556C94.9155 13.996 95.6113 12.975 96.4108 12.4946C97.0728 12.0984 97.8029 12.0512 98.6032 12.3536ZM98.1058 13.6695C97.9173 13.5983 97.7248 13.5959 97.5321 13.6637C97.3381 13.7287 97.1398 13.9045 96.9391 14.1914C96.6764 14.5604 96.3607 15.2327 95.9935 16.2041C95.6255 17.1775 95.4213 17.8632 95.3802 18.2631C95.3389 18.663 95.3686 18.9513 95.4688 19.1277C95.5693 19.3041 95.714 19.427 95.9027 19.4982C96.0913 19.5694 96.2838 19.572 96.4785 19.5048C96.6703 19.4389 96.8686 19.2635 97.0694 18.9763C97.3306 18.6113 97.6456 17.941 98.0136 16.9677C98.3807 15.9962 98.5851 15.3103 98.6261 14.9105C98.6674 14.5105 98.6385 14.2203 98.5381 14.044C98.4384 13.8656 98.2944 13.7409 98.1058 13.6695ZM102.524 15.8072L103.257 14.4222L108.384 17.134L107.806 18.2247C107.163 18.4168 106.418 18.7864 105.569 19.3326C104.721 19.8799 103.949 20.53 103.256 21.2849C102.564 22.0399 102.036 22.7639 101.676 23.4547L100.236 22.6931C100.834 21.625 101.639 20.6389 102.654 19.7358C103.67 18.8355 104.763 18.1246 105.935 17.6114L102.524 15.8072Z" fill="#2B2A29"/>
<path d="M15.228 131.752L16.0498 132.542L16.4564 132.118C16.9102 131.646 17.3 131.341 17.6243 131.206C17.9503 131.068 18.3177 131.057 18.7283 131.171C19.1408 131.287 19.5542 131.542 19.9687 131.94C20.3923 132.347 20.7481 132.81 21.0344 133.327L19.8545 134.176C19.6668 133.889 19.462 133.636 19.2384 133.422C19.0186 133.21 18.8133 133.11 18.6209 133.119C18.4282 133.129 18.1927 133.277 17.9156 133.565L17.5314 133.965L18.6453 135.035L17.5233 136.203L16.4095 135.133L12.1398 139.578L10.6582 138.154L14.9278 133.71L14.106 132.92L15.228 131.752ZM15.5436 142.765L14.0075 141.4L19.1756 135.581L20.5994 136.846L19.8659 137.672C20.4576 137.499 20.9055 137.439 21.2096 137.491C21.5136 137.544 21.789 137.682 22.0377 137.902C22.389 138.214 22.6409 138.612 22.7951 139.093L21.1271 140.012C21.0166 139.613 20.8503 139.315 20.6278 139.117C20.4111 138.925 20.1747 138.822 19.9209 138.807C19.665 138.794 19.3581 138.902 18.9968 139.136C18.6351 139.37 18.0148 139.982 17.1367 140.971L15.5436 142.765ZM23.564 146.014L24.9968 147.526C24.3344 147.969 23.6567 148.175 22.9658 148.149C22.2747 148.119 21.5872 147.848 20.9066 147.335C19.8268 146.521 19.2928 145.565 19.3084 144.469C19.3265 143.593 19.6595 142.724 20.3108 141.86C21.0869 140.83 21.9658 140.225 22.9419 140.047C23.9196 139.866 24.8198 140.088 25.642 140.708C26.5642 141.403 27.0622 142.257 27.137 143.271C27.2094 144.284 26.7594 145.412 25.7848 146.656L21.6774 143.56C21.3223 144.056 21.1681 144.534 21.2171 144.996C21.2639 145.458 21.4771 145.831 21.8521 146.114C22.1096 146.308 22.3779 146.4 22.6569 146.392C22.9378 146.384 23.2393 146.258 23.564 146.014ZM24.9144 144.422C25.2619 143.936 25.4139 143.481 25.3671 143.057C25.3215 142.632 25.1314 142.295 24.7961 142.042C24.4388 141.773 24.0443 141.682 23.6136 141.767C23.183 141.853 22.8 142.124 22.4655 142.576L24.9144 144.422ZM25.7912 147.942L27.7039 148.792C27.5631 149.174 27.5496 149.525 27.6663 149.843C27.7796 150.161 28.0422 150.451 28.4484 150.711C28.8969 150.998 29.286 151.132 29.6186 151.113C29.8443 151.095 30.0198 150.987 30.1436 150.794C30.2271 150.663 30.2552 150.527 30.2285 150.388C30.1946 150.251 30.0509 150.049 29.7964 149.788C28.595 148.582 27.8895 147.733 27.6778 147.238C27.3856 146.55 27.4421 145.891 27.8452 145.262C28.2104 144.692 28.7414 144.358 29.4376 144.258C30.134 144.158 30.9525 144.409 31.8935 145.011C32.79 145.585 33.3629 146.16 33.6113 146.731C33.8583 147.305 33.8817 147.931 33.6778 148.611L31.8547 147.871C31.9496 147.57 31.9417 147.286 31.8336 147.024C31.7255 146.761 31.4885 146.515 31.1244 146.282C30.6656 145.988 30.2968 145.841 30.0147 145.841C29.8241 145.847 29.6834 145.923 29.5917 146.066C29.5122 146.19 29.5017 146.332 29.5621 146.492C29.6458 146.709 30.0831 147.217 30.8744 148.021C31.6656 148.824 32.1476 149.495 32.3183 150.034C32.4858 150.575 32.3905 151.123 32.0374 151.674C31.6534 152.274 31.0713 152.631 30.2921 152.741C29.5149 152.851 28.6331 152.592 27.6481 151.962C26.7557 151.39 26.1642 150.756 25.8728 150.062C25.5834 149.369 25.5548 148.663 25.7912 147.942ZM39.0027 145.796L37.216 149.351C38.1682 148.943 39.0611 148.947 39.8895 149.364C40.3162 149.578 40.661 149.849 40.924 150.177C41.186 150.507 41.343 150.835 41.3937 151.168C41.4454 151.5 41.4282 151.829 41.3412 152.157C41.2568 152.487 41.057 152.963 40.7439 153.586L38.6969 157.659L36.8611 156.736L38.704 153.07C39.0699 152.342 39.2664 151.862 39.2959 151.63C39.3233 151.398 39.2768 151.179 39.1553 150.975C39.0351 150.769 38.841 150.599 38.5706 150.463C38.2624 150.308 37.9508 150.244 37.6322 150.271C37.3147 150.296 37.0261 150.431 36.764 150.674C36.501 150.914 36.2228 151.328 35.93 151.911L34.1814 155.39L32.3458 154.467L37.1672 144.874L39.0027 145.796ZM53.9923 161.356L52.3694 162.556C51.8601 162.108 51.4022 161.557 50.9982 160.905C50.4781 161.166 49.9561 161.321 49.4373 161.37C48.9184 161.42 48.3348 161.355 47.6841 161.176C46.397 160.823 45.5281 160.193 45.0766 159.289C44.7266 158.592 44.6532 157.877 44.8537 157.147C45.0362 156.482 45.3981 155.938 45.9413 155.517C46.4821 155.095 47.2012 154.798 48.0966 154.624C47.8575 154.107 47.6998 153.634 47.6261 153.204C47.5498 152.774 47.5594 152.39 47.6526 152.05C47.8247 151.424 48.2216 150.96 48.8426 150.661C49.4613 150.362 50.2373 150.339 51.1627 150.593C52.0544 150.838 52.6905 151.259 53.0691 151.853C53.447 152.449 53.5448 153.074 53.3635 153.735C53.2483 154.154 53.0163 154.518 52.6648 154.826C52.3134 155.134 51.6975 155.423 50.815 155.692L51.7134 157.999C51.9641 157.746 52.2166 157.393 52.4717 156.945L54.1591 157.841C53.8062 158.428 53.5212 158.853 53.3078 159.11C53.0968 159.369 52.8866 159.578 52.6805 159.734C52.8453 160.002 53.0699 160.307 53.3536 160.652C53.6373 160.997 53.8502 161.232 53.9923 161.356ZM50.1397 154.234L50.7856 153.968C51.2623 153.77 51.5411 153.52 51.6237 153.218C51.6939 152.963 51.6595 152.72 51.5181 152.489C51.3795 152.257 51.1487 152.098 50.8259 152.009C50.5124 151.923 50.2449 151.935 50.0234 152.043C49.8038 152.154 49.6643 152.312 49.6075 152.519C49.54 152.765 49.6079 153.103 49.811 153.534L50.1397 154.234ZM48.7709 156.18C48.2542 156.287 47.8375 156.473 47.5217 156.736C47.2084 157 47.0036 157.302 46.9109 157.639C46.7932 158.068 46.8363 158.458 47.0419 158.805C47.2443 159.153 47.5807 159.391 48.0507 159.52C48.3591 159.605 48.6746 159.627 48.9927 159.582C49.3132 159.537 49.6797 159.42 50.0951 159.229L48.7709 156.18ZM58.5266 161.621L60.6187 161.552C60.6588 161.956 60.7993 162.278 61.0431 162.513C61.2844 162.75 61.6471 162.897 62.126 162.954C62.6547 163.016 63.0632 162.967 63.3542 162.805C63.5492 162.689 63.6603 162.516 63.6873 162.288C63.7054 162.134 63.6713 161.999 63.5865 161.886C63.4961 161.777 63.2788 161.658 62.9361 161.534C61.3289 160.974 60.3236 160.517 59.9174 160.165C59.3541 159.673 59.1178 159.055 59.2057 158.314C59.2856 157.641 59.618 157.109 60.2007 156.715C60.7834 156.321 61.6295 156.19 62.7389 156.321C63.7961 156.447 64.5623 156.714 65.0352 157.12C65.5077 157.528 65.802 158.081 65.9152 158.782L63.9519 158.912C63.9059 158.599 63.7748 158.347 63.563 158.158C63.3513 157.97 63.0306 157.851 62.6012 157.8C62.0604 157.736 61.6642 157.765 61.4106 157.888C61.2416 157.976 61.1482 158.106 61.128 158.275C61.1106 158.421 61.1631 158.553 61.2875 158.671C61.4573 158.83 62.0726 159.096 63.1352 159.474C64.1976 159.852 64.9238 160.245 65.313 160.656C65.6993 161.069 65.8525 161.603 65.7753 162.254C65.6916 162.961 65.3238 163.537 64.6702 163.975C64.0191 164.414 63.1128 164.565 61.9513 164.428C60.8988 164.303 60.0902 163.991 59.5251 163.493C58.9624 162.996 58.6287 162.373 58.5266 161.621ZM67.3923 157.153L69.2806 157.217L69.2445 158.279C69.9494 157.485 70.7698 157.103 71.7066 157.134C72.2036 157.151 72.6323 157.268 72.9901 157.485C73.3503 157.703 73.6396 158.023 73.8578 158.445C74.2141 158.042 74.5942 157.745 74.9958 157.553C75.3975 157.362 75.8231 157.274 76.2726 157.289C76.842 157.308 77.3203 157.439 77.7095 157.685C78.0963 157.931 78.3797 158.28 78.5592 158.737C78.6904 159.071 78.7422 159.61 78.7172 160.352L78.549 165.318L76.4958 165.249L76.6459 160.81C76.6722 160.038 76.6189 159.539 76.4841 159.312C76.3044 159.013 76.0144 158.855 75.6198 158.842C75.3325 158.832 75.0574 158.911 74.7967 159.077C74.5384 159.246 74.3449 159.497 74.221 159.83C74.097 160.166 74.0241 160.699 73.9993 161.431L73.873 165.16L71.8199 165.09L71.9641 160.834C71.9896 160.08 71.9686 159.589 71.9035 159.369C71.8385 159.147 71.7316 158.978 71.5804 158.866C71.4316 158.753 71.2236 158.693 70.9614 158.684C70.6441 158.674 70.3565 158.749 70.0986 158.91C69.8379 159.074 69.6497 159.313 69.5289 159.631C69.4081 159.95 69.3351 160.482 69.3098 161.227L69.1821 165.001L67.129 164.931L67.3923 157.153ZM79.821 161.03C79.7691 160.347 79.8855 159.674 80.1735 159.011C80.461 158.345 80.9 157.823 81.4899 157.439C82.0797 157.056 82.752 156.834 83.5121 156.776C84.6858 156.687 85.6745 156.995 86.4826 157.7C87.291 158.408 87.7381 159.342 87.8269 160.508C87.9166 161.684 87.6122 162.687 86.9161 163.518C86.2174 164.348 85.2947 164.807 84.146 164.894C83.4356 164.948 82.7454 164.838 82.0756 164.566C81.4081 164.293 80.8812 163.86 80.4974 163.262C80.1135 162.667 79.8891 161.923 79.821 161.03ZM81.9376 160.979C81.9963 161.749 82.2232 162.326 82.6181 162.707C83.0159 163.09 83.48 163.261 84.0157 163.22C84.5489 163.179 84.982 162.94 85.3121 162.502C85.6423 162.066 85.7787 161.456 85.7193 160.676C85.6613 159.916 85.4349 159.344 85.0425 158.963C84.6498 158.579 84.1854 158.409 83.6524 158.45C83.1166 158.491 82.6835 158.729 82.3485 159.169C82.0157 159.605 81.879 160.209 81.9376 160.979ZM88.4963 160.145C88.3701 159.472 88.4124 158.79 88.6261 158.099C88.8392 157.406 89.2185 156.839 89.7631 156.393C90.3076 155.948 90.9517 155.654 91.7009 155.514C92.8578 155.297 93.8742 155.495 94.7546 156.108C95.6353 156.723 96.1816 157.602 96.3973 158.752C96.6148 159.911 96.4218 160.942 95.8204 161.843C95.2165 162.745 94.3494 163.301 93.2171 163.514C92.5169 163.645 91.8189 163.611 91.1233 163.413C90.4302 163.216 89.859 162.842 89.4124 162.29C88.9659 161.741 88.6612 161.025 88.4963 160.145ZM90.5948 159.863C90.7372 160.623 91.0256 161.171 91.4598 161.507C91.8971 161.844 92.3768 161.963 92.905 161.864C93.4306 161.765 93.8352 161.48 94.1153 161.008C94.3958 160.539 94.4648 159.918 94.3206 159.149C94.1801 158.4 93.8925 157.856 93.4608 157.52C93.0285 157.182 92.5486 157.063 92.023 157.162C91.4948 157.261 91.0905 157.545 90.8054 158.019C90.5224 158.489 90.4523 159.105 90.5948 159.863ZM99.9825 153.56L100.421 155.135L99.0628 155.513L99.908 158.549C100.08 159.165 100.192 159.521 100.246 159.615C100.301 159.708 100.382 159.776 100.495 159.818C100.604 159.857 100.725 159.86 100.857 159.823C101.042 159.771 101.29 159.635 101.603 159.41L102.198 160.905C101.794 161.231 101.301 161.474 100.718 161.636C100.362 161.735 100.025 161.764 99.7048 161.724C99.3849 161.683 99.1319 161.585 98.9466 161.431C98.7579 161.276 98.5949 161.044 98.4507 160.732C98.3455 160.512 98.1937 160.051 97.9974 159.345L97.0838 156.064L96.1738 156.317L95.7353 154.742L96.6454 154.489L96.2313 153.001L97.8845 151.28L98.6245 153.938L99.9825 153.56ZM101.486 149.87L102.912 153.585C103.251 152.606 103.855 151.949 104.721 151.616C105.166 151.445 105.599 151.373 106.019 151.399C106.439 151.428 106.787 151.533 107.068 151.719C107.348 151.904 107.58 152.139 107.764 152.424C107.951 152.708 108.168 153.177 108.418 153.827L110.051 158.083L108.133 158.82L106.663 154.988C106.371 154.228 106.148 153.759 105.997 153.581C105.843 153.405 105.65 153.292 105.418 153.244C105.185 153.195 104.928 153.223 104.646 153.332C104.324 153.455 104.066 153.643 103.872 153.896C103.677 154.148 103.582 154.452 103.585 154.81C103.585 155.166 103.704 155.65 103.938 156.259L105.333 159.894L103.415 160.631L99.5681 150.607L101.486 149.87ZM108.308 149.182L107.522 147.446L109.394 146.599L110.179 148.335L108.308 149.182ZM111.949 157.228L108.74 150.138L110.612 149.291L113.821 156.381L111.949 157.228ZM118.443 151.216L120.39 150.476C120.543 151.257 120.472 151.962 120.182 152.59C119.889 153.216 119.374 153.746 118.639 154.177C117.472 154.86 116.384 154.985 115.378 154.549C114.577 154.195 113.903 153.553 113.356 152.619C112.704 151.507 112.484 150.463 112.695 149.493C112.905 148.521 113.456 147.776 114.345 147.256C115.341 146.672 116.322 146.541 117.286 146.862C118.249 147.185 119.117 148.035 119.889 149.413L115.451 152.012C115.772 152.531 116.154 152.858 116.6 152.99C117.043 153.125 117.47 153.072 117.875 152.834C118.153 152.671 118.342 152.459 118.442 152.199C118.543 151.936 118.543 151.609 118.443 151.216ZM117.493 149.357C117.178 148.849 116.817 148.534 116.408 148.414C115.997 148.292 115.613 148.338 115.25 148.55C114.865 148.776 114.629 149.105 114.542 149.536C114.455 149.966 114.558 150.424 114.846 150.906L117.493 149.357ZM126.459 149.222L119.812 140.79L121.425 139.518L123.823 142.56C123.875 141.6 124.239 140.851 124.922 140.313C125.666 139.726 126.492 139.511 127.405 139.667C128.317 139.823 129.171 140.406 129.968 141.417C130.792 142.461 131.178 143.461 131.127 144.418C131.075 145.372 130.693 146.132 129.985 146.69C129.635 146.966 129.221 147.146 128.74 147.235C128.258 147.322 127.762 147.294 127.247 147.146L127.954 148.043L126.459 149.222ZM125.547 144.795C126.047 145.429 126.518 145.821 126.956 145.965C127.577 146.176 128.119 146.099 128.584 145.732C128.941 145.451 129.125 145.058 129.136 144.552C129.146 144.048 128.891 143.466 128.373 142.809C127.82 142.108 127.295 141.704 126.797 141.594C126.3 141.483 125.854 141.583 125.457 141.896C125.069 142.202 124.866 142.607 124.847 143.112C124.828 143.617 125.061 144.178 125.547 144.795ZM131.153 138.614L129.584 139.664C129.209 138.971 129.08 138.314 129.197 137.696C129.313 137.078 129.736 136.418 130.464 135.719C131.126 135.083 131.694 134.686 132.169 134.531C132.642 134.378 133.061 134.356 133.425 134.471C133.788 134.586 134.28 134.963 134.9 135.609L136.541 137.359C137.014 137.851 137.387 138.192 137.659 138.381C137.931 138.571 138.26 138.736 138.646 138.878L137.176 140.291C137.044 140.231 136.857 140.133 136.618 139.996C136.509 139.93 136.436 139.89 136.399 139.873C136.386 140.364 136.294 140.81 136.125 141.211C135.956 141.613 135.711 141.97 135.385 142.284C134.81 142.836 134.205 143.116 133.572 143.121C132.941 143.128 132.394 142.891 131.933 142.412C131.63 142.096 131.434 141.741 131.347 141.347C131.261 140.954 131.288 140.56 131.435 140.166C131.581 139.773 131.863 139.28 132.281 138.687C132.848 137.892 133.212 137.307 133.371 136.939L133.227 136.79C132.95 136.501 132.682 136.364 132.422 136.374C132.162 136.389 131.836 136.584 131.446 136.959C131.181 137.214 131.025 137.464 130.98 137.712C130.931 137.96 130.99 138.26 131.153 138.614ZM134.296 137.901C134.167 138.146 133.939 138.511 133.611 138.996C133.285 139.479 133.098 139.826 133.052 140.03C132.992 140.354 133.061 140.62 133.264 140.831C133.465 141.04 133.714 141.144 134.014 141.146C134.315 141.149 134.584 141.036 134.823 140.805C135.09 140.549 135.261 140.215 135.336 139.806C135.385 139.5 135.348 139.223 135.217 138.975C135.133 138.812 134.921 138.552 134.58 138.197L134.296 137.901ZM141.116 136.319L139.692 137.801L134.079 132.409L135.399 131.036L136.195 131.801C136.046 131.203 136.003 130.753 136.067 130.452C136.132 130.15 136.28 129.88 136.511 129.64C136.836 129.301 137.243 129.065 137.73 128.93L138.583 130.632C138.18 130.727 137.876 130.882 137.669 131.096C137.469 131.305 137.357 131.538 137.332 131.791C137.309 132.046 137.405 132.357 137.624 132.727C137.844 133.097 138.432 133.741 139.385 134.657L141.116 136.319Z" fill="#2B2A29"/>
<path opacity="0.14" fill-rule="evenodd" clip-rule="evenodd" d="M75.0004 2.09766C115.263 2.09766 147.903 34.7373 147.903 75.0004C147.903 115.263 115.263 147.903 75.0004 147.903C34.7374 147.903 2.09766 115.263 2.09766 75.0004C2.09766 34.7373 34.7374 2.09766 75.0004 2.09766Z" fill="#2B2A29"/>
</svg>
